<?xml version="1.0" encoding="UTF-8"?>
<svg version="1.1" xmlns="http://www.w3.org/2000/svg" width="915" height="273">
<path d="M0 0 C8.2944548 -0.02340727 16.58889527 -0.0410571 24.88337517 -0.05181217 C28.73687806 -0.05698 32.59035798 -0.06396335 36.44384766 -0.07543945 C100.93160994 -0.26173947 100.93160994 -0.26173947 122.92358398 20.7980957 C136.44713929 34.28928142 145.26128417 50.16340517 145.46826172 69.55224609 C145.45811035 70.64875488 145.44795898 71.74526367 145.4375 72.875 C145.42614014 74.59517334 145.42614014 74.59517334 145.41455078 76.35009766 C145.25361484 84.60481902 144.47218187 91.42826383 141 99 C140.57589844 100.00546875 140.15179688 101.0109375 139.71484375 102.046875 C134.53137785 113.42451046 126.56830308 122.10558445 117 130 C114.23344582 128.70891619 111.95037933 127.2935196 109.6015625 125.34765625 C108.96476562 124.82429688 108.32796875 124.3009375 107.671875 123.76171875 C106.99640625 123.20097656 106.3209375 122.64023438 105.625 122.0625 C104.18046525 120.87535508 102.73513907 119.68917258 101.2890625 118.50390625 C100.2047998 117.61469482 100.2047998 117.61469482 99.09863281 116.70751953 C96.09665049 114.2650039 93.05254168 111.87881032 90 109.5 C83.49374493 104.41985025 77.08918668 99.21963248 70.69140625 94.00390625 C66.9357128 90.94303995 63.15278858 87.91730553 59.36328125 84.8984375 C55.75777414 82.00211278 52.19621851 79.05253448 48.62890625 76.109375 C45.62877708 73.70213911 42.535505 71.46321184 39.36328125 69.2890625 C38.91339844 68.86367187 38.46351562 68.43828125 38 68 C38 67.01 38 66.02 38 65 C40.15899287 63.44896529 42.20826549 62.1305738 44.5 60.8125 C46.645 59.554375 48.79 58.29625 51 57 C44.4 57 37.8 57 31 57 C21.22047729 77.08766827 18.71042361 99.49214529 25.63427734 120.96728516 C28.1289804 128.16184634 31.09555562 134.88315895 35.60546875 141.0703125 C37 143 37 143 38.46484375 145.48046875 C48.59268989 162.10250631 67.96021956 172.78514525 86.25 178 C87.82278547 178.38000186 89.40773079 178.71236427 91 179 C92.01320313 179.18820313 93.02640625 179.37640625 94.0703125 179.5703125 C97.30756111 179.92428601 100.23652566 180.00337469 103.4765625 179.9296875 C122.53200173 179.63636064 122.53200173 179.63636064 129.4375 186.125 C131.35553019 188.03415609 133.17210643 190.00117219 135 192 C136.4274116 193.18413101 137.88377446 194.33481396 139.375 195.4375 C143.62323275 198.70537134 147.8533913 201.99440277 152.0625 205.3125 C152.74296387 205.84093506 153.42342773 206.36937012 154.12451172 206.91381836 C155.78731889 208.22965849 157.39884287 209.60979901 159 211 C159 211.66 159 212.32 159 213 C140.6705885 215.25909462 140.6705885 215.25909462 133.18359375 210.2109375 C129.19232014 207.08340045 125.57650822 203.58727362 122 200 C118.35138302 196.42539148 114.75305563 196.57337378 109.875 196.5 C79.05153918 195.33135283 53.01767652 184.01767652 31 162 C25.71295455 156.13651348 21.56352937 150.02360144 18 143 C17.51789062 142.11957031 17.03578125 141.23914063 16.5390625 140.33203125 C13.49222342 134.60180852 11.12789898 128.86429367 9.1875 122.6875 C8.98060547 122.02999756 8.77371094 121.37249512 8.56054688 120.69506836 C0.94842899 95.32454582 6.7398197 69.62409113 18.65838623 46.82809448 C21 44 21 44 24.29034424 43.24050903 C25.59606384 43.23606781 26.90178345 43.23162659 28.24707031 43.22705078 C29.3305928 43.21110619 29.3305928 43.21110619 30.43600464 43.19483948 C32.81742067 43.16679215 35.19661947 43.18084415 37.578125 43.1953125 C39.23152604 43.18406228 40.8849111 43.17018159 42.53826904 43.15377808 C46.88512426 43.11771438 51.23127654 43.11736963 55.57824707 43.12445068 C60.0158346 43.12536306 64.45315793 43.09251278 68.890625 43.0625 C77.59384679 43.00861377 86.29661571 42.99245873 95 43 C94.24679565 46.79647827 94.24679565 46.79647827 92.02563477 48.62817383 C91.17283936 49.14919678 90.32004395 49.67021973 89.44140625 50.20703125 C88.49716797 50.79419922 87.55292969 51.38136719 86.58007812 51.98632812 C85.58427734 52.58896484 84.58847656 53.19160156 83.5625 53.8125 C81.62487129 55.00418714 79.68866499 56.19819021 77.75390625 57.39453125 C76.80273926 57.98186035 75.85157227 58.56918945 74.87158203 59.17431641 C70.47649897 61.96860574 66.23001773 64.96331695 62 68 C71.74865078 75.94239617 81.52654702 83.84575141 91.35595703 91.68798828 C93.67650024 93.53987412 95.99452713 95.39489847 98.3125 97.25 C99.08464844 97.86617188 99.85679687 98.48234375 100.65234375 99.1171875 C102.33803701 100.46910788 104.01694918 101.82949991 105.69140625 103.1953125 C106.57699219 103.91460937 107.46257812 104.63390625 108.375 105.375 C109.16648437 106.02210938 109.95796875 106.66921875 110.7734375 107.3359375 C112.79221941 108.84471135 114.71003626 109.96481091 117 111 C129.37296994 95.77827066 132.30465685 80.47733284 130.7890625 61.3359375 C128.32308824 46.70449022 117.90787786 34.02793121 106.2890625 25.5234375 C92.33531584 16.2368143 77.009851 14.39961056 60.6875 14.390625 C59.09609336 14.3755936 57.50470202 14.35885636 55.91333008 14.34051514 C51.78384569 14.29738449 47.65457136 14.27696535 43.52490234 14.26177979 C39.28731126 14.24200955 35.0499408 14.20006425 30.8125 14.16015625 C22.54172534 14.08544465 14.27103861 14.03479912 6 14 C4.9923048 12.2335343 3.99408286 10.46166177 3 8.6875 C2.443125 7.70136719 1.88625 6.71523438 1.3125 5.69921875 C0 3 0 3 0 0 Z " fill="#ffffff" transform="translate(32,38)"/>
<path d="M0 0 C0.74523926 -0.0049649 1.49047852 -0.00992981 2.25830078 -0.01504517 C4.73894166 -0.02971128 7.21951806 -0.03648506 9.70019531 -0.04199219 C10.55350685 -0.04481956 11.40681839 -0.04764694 12.28598785 -0.05056 C16.82412528 -0.06559021 21.36223076 -0.07478839 25.90039062 -0.07910156 C29.61663845 -0.08344824 33.33264914 -0.09718392 37.04882812 -0.12011719 C72.52528935 -0.33482765 106.54898829 -0.38839802 134.77832031 24.16113281 C135.98567421 25.12069979 137.19385716 26.07922577 138.40332031 27.03613281 C139.18707031 27.73738281 139.97082031 28.43863281 140.77832031 29.16113281 C140.77832031 29.82113281 140.77832031 30.48113281 140.77832031 31.16113281 C141.43832031 31.16113281 142.09832031 31.16113281 142.77832031 31.16113281 C161.35669248 51.32799033 166.7078665 75.40858934 165.77832031 102.16113281 C165.10721582 111.11558412 162.33562133 118.95756108 158.77832031 127.16113281 C158.40835938 128.02609375 158.03839844 128.89105469 157.65722656 129.78222656 C151.87955544 142.27719005 142.56593596 151.77031239 132.77832031 161.16113281 C131.77633597 162.15914453 130.77585895 163.1586775 129.77832031 164.16113281 C137.39916392 170.38647129 145.02175067 176.60518938 152.77832031 182.66113281 C159.93933032 188.25367785 166.97813127 193.99244144 174.02148438 199.73193359 C180.8130816 205.2569489 187.68920291 210.67366938 194.58056641 216.07324219 C199.04810591 219.57652035 203.47871481 223.12337338 207.88769531 226.70019531 C209.71703755 228.21091721 209.71703755 228.21091721 211.77832031 229.16113281 C211.77832031 230.15113281 211.77832031 231.14113281 211.77832031 232.16113281 C194.67783814 233.68192668 194.67783814 233.68192668 188.27050781 230.32128906 C185.79235107 228.18413209 183.47970774 225.97851096 181.2265625 223.60644531 C178.70534314 221.09032619 175.85890922 219.00159708 173.02832031 216.84863281 C167.866208 212.834852 162.77843421 208.73697466 157.71582031 204.59863281 C151.9298678 199.87251766 146.06344409 195.284445 140.12207031 190.75488281 C135.58501773 187.26484236 131.17210641 183.62143478 126.74389648 179.99511719 C121.43782404 175.66237078 116.02865457 171.48872615 110.54785156 167.37988281 C107.74639236 165.13555442 105.31471 162.6975225 102.77832031 160.16113281 C100.69245933 158.45972464 98.60040862 156.7980571 96.46582031 155.16113281 C91.18078138 151.06057433 85.95822408 146.89369992 80.77832031 142.66113281 C74.0817991 137.19803309 67.31645683 131.8313216 60.50488281 126.51269531 C58.73796974 125.12954617 56.97622969 123.74004808 55.21582031 122.34863281 C47.81842968 116.50566383 40.34973113 110.77728919 32.77832031 105.16113281 C33.08914903 103.41083519 33.40205211 101.66090587 33.71582031 99.91113281 C33.88984375 98.93660156 34.06386719 97.96207031 34.24316406 96.95800781 C34.6821176 94.66391487 35.18180624 92.4182131 35.77832031 90.16113281 C40.13425497 90.64629745 42.82489666 93.50128758 45.96582031 96.28613281 C47.1313167 97.2965988 48.29798618 98.3057133 49.46582031 99.31347656 C50.03300781 99.80444824 50.60019531 100.29541992 51.18457031 100.80126953 C53.91514445 103.13112522 56.75835271 105.30641311 59.60644531 107.48925781 C63.71320221 110.65057427 67.73645309 113.91758151 71.77832031 117.16113281 C72.535 117.76441406 73.29167969 118.36769531 74.07128906 118.98925781 C79.35450325 123.2016698 84.60196185 127.45632246 89.84082031 131.72363281 C94.7428745 135.71491664 99.66345254 139.67195511 104.67285156 143.52832031 C108.74799826 146.68863816 112.75887032 149.93046841 116.77832031 153.16113281 C128.99478146 148.846928 137.30277758 136.23254826 143.09082031 125.22363281 C152.63641791 105.01878457 153.01817419 84.41061709 145.52832031 63.47363281 C136.79621229 42.09681051 120.43509953 29.0882375 99.77832031 20.16113281 C85.72656459 14.90570163 70.2764773 14.85173111 55.46972656 14.74707031 C53.76479715 14.72830557 52.05987651 14.70872848 50.35496521 14.68838501 C45.92138909 14.63761704 41.48778302 14.59769974 37.05407715 14.5602417 C32.50831032 14.51984988 27.96266197 14.46892031 23.41699219 14.41894531 C14.5375188 14.32284363 5.65797763 14.23823409 -3.22167969 14.16113281 C-4.2267677 12.37231546 -5.22560705 10.57998586 -6.22167969 8.78613281 C-7.05699219 7.28953125 -7.05699219 7.28953125 -7.90917969 5.76269531 C-9.22167969 3.16113281 -9.22167969 3.16113281 -9.22167969 1.16113281 C-6.26035438 -0.31952984 -3.24744969 0.00513969 0 0 Z " fill="#ffffff" transform="translate(31.2216796875,18.8388671875)"/>
<path d="M0 0 C5.61 0 11.22 0 17 0 C19.04112894 5.87936642 20.73423536 11.67316983 22.04296875 17.75390625 C22.19721313 18.45253784 22.35145752 19.15116943 22.51037598 19.87097168 C23.07470449 22.43365588 23.63063938 24.9981827 24.1875 27.5625 C25.445625 33.316875 26.70375 39.07125 28 45 C28.33 30.15 28.66 15.3 29 0 C32.96 0 36.92 0 41 0 C42.89977088 1.89977088 42.12012643 4.68939065 42.12442017 7.21670532 C42.11902725 8.55781876 42.11902725 8.55781876 42.11352539 9.92602539 C42.11367142 10.86251419 42.11381744 11.79900299 42.1139679 12.76387024 C42.11326837 15.87515539 42.10547415 18.98638149 42.09765625 22.09765625 C42.09579221 24.24857043 42.09436824 26.39948503 42.09336853 28.55039978 C42.08954225 34.22381758 42.07971102 39.89720995 42.06866455 45.57061768 C42.0584528 51.35501766 42.05387142 57.13942173 42.04882812 62.92382812 C42.03808885 74.28256328 42.02101111 85.64127953 42 97 C37.05 97 32.1 97 27 97 C23.72409844 85.09104593 20.92750477 73.11873662 18.25 61.0625 C16.8475 54.771875 15.445 48.48125 14 42 C13.67 60.15 13.34 78.3 13 97 C8.71 97 4.42 97 0 97 C0 64.99 0 32.98 0 0 Z " fill="#ffffff" transform="translate(530,153)"/>
<path d="M0 0 C5.61 0 11.22 0 17 0 C19.89055096 9.10022037 22.03301177 18.33023982 24.1875 27.625 C25.445625 33.02875 26.70375 38.4325 28 44 C28 29.48 28 14.96 28 0 C32.62 0 37.24 0 42 0 C42 31.68 42 63.36 42 96 C37.05 96 32.1 96 27 96 C23.55393562 84.47623425 20.84554562 72.86670806 18.25 61.125 C16.8475 54.81375 15.445 48.5025 14 42 C13.67 59.82 13.34 77.64 13 96 C8.71 96 4.42 96 0 96 C0 64.32 0 32.64 0 0 Z " fill="#ffffff" transform="translate(533,37)"/>
<path d="M0 0 C1.07314453 -0.020625 2.14628906 -0.04125 3.25195312 -0.0625 C11.1288756 -0.10108872 17.37529337 0.32093279 23.3125 6 C27.29523538 12.09124235 27.77980914 18.12273265 27.75 25.1875 C27.76611328 25.94740234 27.78222656 26.70730469 27.79882812 27.49023438 C27.80461298 34.26429916 26.24367868 39.54073198 22.4375 45.25 C21.7775 45.25 21.1175 45.25 20.4375 45.25 C20.84742188 45.74628906 21.25734375 46.24257812 21.6796875 46.75390625 C22.21851563 47.43324219 22.75734375 48.11257812 23.3125 48.8125 C23.84617187 49.47378906 24.37984375 50.13507813 24.9296875 50.81640625 C28.68209871 56.87275906 28.77600777 63.22773833 28.75 70.125 C28.76611328 70.97191406 28.78222656 71.81882812 28.79882812 72.69140625 C28.80430473 79.84385882 27.46638906 86.03176218 23.625 92.125 C19.14226067 96.47966106 14.86995591 97.62751086 8.7265625 97.54296875 C7.48261719 97.53330078 6.23867188 97.52363281 4.95703125 97.51367188 C3.02923828 97.4759668 3.02923828 97.4759668 1.0625 97.4375 C-0.90009766 97.41719727 -0.90009766 97.41719727 -2.90234375 97.39648438 C-6.12281844 97.3612237 -9.34244606 97.31193633 -12.5625 97.25 C-12.58562143 84.750429 -12.60341406 72.25086305 -12.61431217 59.75127506 C-12.61954144 53.94786387 -12.62663987 48.14446725 -12.63793945 42.34106445 C-12.64876678 36.74549147 -12.6547765 31.14993255 -12.65737724 25.5543499 C-12.65923177 23.41441056 -12.66285291 21.27447204 -12.66823006 19.13453865 C-12.67543844 16.14835034 -12.67649103 13.16222093 -12.67602539 10.17602539 C-12.67962067 9.28194977 -12.68321594 8.38787415 -12.68692017 7.46670532 C-12.67060409 -2.13701043 -8.45917295 0.03964463 0 0 Z M2.4375 16.25 C2.4375 24.17 2.4375 32.09 2.4375 40.25 C7.92366552 40.6082515 7.92366552 40.6082515 10.7890625 39.34765625 C13.53916693 35.84811577 12.93343955 31.99358463 12.8125 27.6875 C12.81121094 26.81158203 12.80992187 25.93566406 12.80859375 25.03320312 C13.00384025 20.12395487 13.00384025 20.12395487 10.4375 16.25 C7.7975 16.25 5.1575 16.25 2.4375 16.25 Z M2.4375 55.25 C2.4375 64.16 2.4375 73.07 2.4375 82.25 C5.4075 82.25 8.3775 82.25 11.4375 82.25 C14.27541629 77.99312556 13.80541418 74.31862918 13.8125 69.3125 C13.83699219 68.40564453 13.86148438 67.49878906 13.88671875 66.56445312 C13.90411132 62.62503577 13.91333569 60.03876211 11.8515625 56.62109375 C8.88574717 54.67382492 8.88574717 54.67382492 2.4375 55.25 Z " fill="#ffffff" transform="translate(805.5625,152.75)"/>
<path d="M0 0 C29.85714286 0 29.85714286 0 35.75 5.625 C42.04896999 13.9696162 40.76793736 26.98297242 39.6875 36.85546875 C38.81324038 41.51558476 37.37141115 44.51620848 34 48 C34.268125 48.53625 34.53625 49.0725 34.8125 49.625 C35.204375 50.40875 35.59625 51.1925 36 52 C36.515625 52.969375 37.03125 53.93875 37.5625 54.9375 C39.98548336 60.09950804 40.18112767 65.07305934 40.31640625 70.70703125 C40.33718735 71.43242599 40.35796844 72.15782074 40.37937927 72.90519714 C40.44442215 75.20754113 40.50354773 77.50999282 40.5625 79.8125 C40.60572835 81.37956814 40.64934398 82.94662565 40.69335938 84.51367188 C40.80078096 88.34233945 40.90018942 92.17109627 41 96 C36.05 96 31.1 96 26 96 C25.15631064 91.78155321 24.86360284 88.31553642 24.82421875 84.0546875 C24.8010429 82.71743179 24.77692651 81.3801921 24.75195312 80.04296875 C24.71672658 77.95154678 24.68740899 75.86072691 24.67407227 73.76904297 C24.65862123 71.73853865 24.61847211 69.70974137 24.57421875 67.6796875 C24.55963623 66.47038574 24.54505371 65.26108398 24.5300293 64.01513672 C24.2742206 60.95817383 24.2742206 60.95817383 22.27661133 59.14501953 C19.65725599 57.70144644 19.65725599 57.70144644 15 57 C15 69.87 15 82.74 15 96 C10.05 96 5.1 96 0 96 C0 64.32 0 32.64 0 0 Z M15 15 C15 23.91 15 32.82 15 42 C21.38843462 42.6204845 21.38843462 42.6204845 23.91259766 40.79882812 C25.31561418 38.47789734 25.38759696 36.92578696 25.3984375 34.21875 C25.40230469 33.29449219 25.40617187 32.37023437 25.41015625 31.41796875 C25.39275391 29.97357422 25.39275391 29.97357422 25.375 28.5 C25.38660156 27.53707031 25.39820313 26.57414062 25.41015625 25.58203125 C25.40435547 24.19564453 25.40435547 24.19564453 25.3984375 22.78125 C25.39505371 21.93626953 25.39166992 21.09128906 25.38818359 20.22070312 C25.13405229 17.97645054 25.13405229 17.97645054 23.91259766 16.20117188 C21.38843462 14.3795155 21.38843462 14.3795155 15 15 Z " fill="#ffffff" transform="translate(271,37)"/>
<path d="M0 0 C4.29 0 8.58 0 13 0 C14 1 14 1 14.11352539 4.87719727 C14.11336621 6.60694167 14.10766849 8.33669081 14.09765625 10.06640625 C14.0962413 10.97502914 14.09482635 11.88365204 14.09336853 12.81980896 C14.08775193 15.73407221 14.07519665 18.64825981 14.0625 21.5625 C14.05748714 23.53320202 14.05292386 25.50390524 14.04882812 27.47460938 C14.03777711 32.31643559 14.02050138 37.15820495 14 42 C18.29 42 22.58 42 27 42 C27 28.14 27 14.28 27 0 C31.62 0 36.24 0 41 0 C41 32.01 41 64.02 41 97 C36.38 97 31.76 97 27 97 C27 83.8 27 70.6 27 57 C22.71 57 18.42 57 14 57 C14 70.2 14 83.4 14 97 C9.38 97 4.76 97 0 97 C0 64.99 0 32.98 0 0 Z " fill="#ffffff" transform="translate(461,153)"/>
<path d="M0 0 C5.57130238 3.9878796 8.64486343 8.56577576 9.85546875 15.328125 C10.16120419 20.04403179 10.15952783 24.7519611 10.15625 29.4765625 C10.16014425 30.85747403 10.16448041 32.23838438 10.16923523 33.61929321 C10.17667025 36.50567517 10.17642625 39.39193476 10.17114258 42.27832031 C10.16535472 45.95543885 10.18227514 49.63205257 10.20548725 53.30908775 C10.22030538 56.15919871 10.22108534 59.00919038 10.21797752 61.85933304 C10.21873236 63.86713128 10.23253926 65.87491117 10.24665833 67.88265991 C10.2046053 76.24111499 9.73840918 83.84826319 4.54296875 90.703125 C-0.24835536 95.38302297 -3.89405597 96.53739976 -10.51953125 96.828125 C-16.60698026 96.65479217 -20.8064454 95.72774399 -25.14453125 91.328125 C-32.04859215 82.38226163 -31.3016042 71.79143988 -31.3125 60.98828125 C-31.3158284 59.82614609 -31.3191568 58.66401093 -31.32258606 57.46665955 C-31.32762629 55.02017612 -31.32999529 52.57368588 -31.32983398 50.12719727 C-31.33202242 46.4056457 -31.35021483 42.68438995 -31.36914062 38.96289062 C-31.37207485 36.57552184 -31.37405945 34.18815166 -31.375 31.80078125 C-31.38218552 30.69944351 -31.38937103 29.59810577 -31.39677429 28.46339417 C-31.3702577 19.40240066 -31.17101809 10.55990921 -25.14453125 3.328125 C-17.74696573 -3.50039702 -8.89410078 -5.04176571 0 0 Z M-14.14453125 13.328125 C-16.17944468 16.70575715 -16.40193499 19.31328897 -16.41918945 23.2265625 C-16.42872147 24.41459473 -16.43825348 25.60262695 -16.44807434 26.82666016 C-16.44716293 28.10589355 -16.44625153 29.38512695 -16.4453125 30.703125 C-16.44959763 32.01974121 -16.45388275 33.33635742 -16.45829773 34.69287109 C-16.46575013 37.47692903 -16.46547546 40.26086013 -16.46020508 43.04492188 C-16.45440603 46.60940363 -16.47135597 50.1733665 -16.49454975 53.73776245 C-16.51283613 57.14290515 -16.50910179 60.54793345 -16.5078125 63.953125 C-16.51702225 65.2323584 -16.52623199 66.5115918 -16.53572083 67.82958984 C-16.52949203 69.01762207 -16.52326324 70.2056543 -16.5168457 71.4296875 C-16.51747513 72.47463379 -16.51810455 73.51958008 -16.51875305 74.59619141 C-16.09678476 77.67668898 -15.20704161 79.04966472 -13.14453125 81.328125 C-9.67953125 80.833125 -9.67953125 80.833125 -6.14453125 80.328125 C-3.54741294 74.39785509 -3.83862059 68.52562576 -3.84375 62.17578125 C-3.83946487 61.00228622 -3.83517975 59.8287912 -3.83076477 58.61973572 C-3.82503229 56.14273726 -3.82451322 53.66572198 -3.82885742 51.1887207 C-3.83201721 47.40742171 -3.808544 43.62690548 -3.78320312 39.84570312 C-3.78092996 37.43489682 -3.78022672 35.02408841 -3.78125 32.61328125 C-3.77204025 31.48704849 -3.76283051 30.36081573 -3.75334167 29.20045471 C-3.78900605 23.12416266 -4.23831502 18.70301606 -7.14453125 13.328125 C-9.45453125 13.328125 -11.76453125 13.328125 -14.14453125 13.328125 Z " fill="#ffffff" transform="translate(630.14453125,154.671875)"/>
<path d="M0 0 C0.78552246 0.01047363 1.57104492 0.02094727 2.38037109 0.03173828 C3.23115234 0.03818359 4.08193359 0.04462891 4.95849609 0.05126953 C6.29267578 0.07640625 6.29267578 0.07640625 7.65380859 0.10205078 C8.55099609 0.11107422 9.44818359 0.12009766 10.37255859 0.12939453 C12.5915877 0.15300122 14.81002078 0.18762485 17.02880859 0.22705078 C18.64158249 7.00550889 19.73151746 13.73651803 20.61474609 20.64501953 C20.75666885 21.72882401 20.89859161 22.81262848 21.04481506 23.92927551 C21.50161068 27.42388447 21.95282581 30.91918737 22.40380859 34.41455078 C22.71600874 36.81368896 23.02859133 39.21277741 23.34155273 41.61181641 C23.80687572 45.17933809 24.27189885 48.74689563 24.73530579 52.31466675 C25.59776023 58.95072984 26.47387547 65.5846095 27.37646484 72.21533203 C27.52124268 73.28209419 27.52124268 73.28209419 27.66894531 74.3704071 C28.09634975 77.5173832 28.52673851 80.66390253 28.96191406 83.80981445 C29.1064502 84.87562744 29.25098633 85.94144043 29.39990234 87.03955078 C29.52292725 87.93287109 29.64595215 88.82619141 29.77270508 89.74658203 C30.02880859 92.22705078 30.02880859 92.22705078 30.02880859 97.22705078 C25.07880859 97.22705078 20.12880859 97.22705078 15.02880859 97.22705078 C14.04210479 91.30682794 13.95599339 86.1978975 14.02880859 80.22705078 C9.40880859 80.22705078 4.78880859 80.22705078 0.02880859 80.22705078 C0.35880859 81.21705078 0.68880859 82.20705078 1.02880859 83.22705078 C0.36880859 83.22705078 -0.29119141 83.22705078 -0.97119141 83.22705078 C-1.30119141 87.84705078 -1.63119141 92.46705078 -1.97119141 97.22705078 C-6.59119141 97.22705078 -11.21119141 97.22705078 -15.97119141 97.22705078 C-15.14630675 87.05810424 -13.84579734 76.96362403 -12.53759766 66.84814453 C-12.36068044 65.47691783 -12.36068044 65.47691783 -12.18018913 64.07798958 C-11.5579582 59.25779829 -10.93300169 54.43796918 -10.3059082 49.6184082 C-9.6586537 44.6392361 -9.02142723 39.65883199 -8.38630772 34.67809963 C-7.8952457 30.84190781 -7.39666832 27.00672011 -6.89600945 23.1717701 C-6.65751632 21.33447151 -6.42191546 19.49679511 -6.18924141 17.65875053 C-5.86485181 15.10154707 -5.52984751 12.54595211 -5.19213867 9.99047852 C-5.09804214 9.22948853 -5.00394562 8.46849854 -4.90699768 7.68444824 C-3.92840798 0.45249188 -3.92840798 0.45249188 0 0 Z M6.02880859 27.22705078 C4.37880859 40.09705078 2.72880859 52.96705078 1.02880859 66.22705078 C4.32880859 66.22705078 7.62880859 66.22705078 11.02880859 66.22705078 C10.42051598 53.1382718 8.74344535 40.21022226 7.02880859 27.22705078 C6.69880859 27.22705078 6.36880859 27.22705078 6.02880859 27.22705078 Z " fill="#ffffff" transform="translate(737.97119140625,152.77294921875)"/>
<path d="M0 0 C3.31248187 -0.02888146 6.62493167 -0.04675799 9.9375 -0.0625 C10.88302734 -0.07087891 11.82855469 -0.07925781 12.80273438 -0.08789062 C14.15141602 -0.09272461 14.15141602 -0.09272461 15.52734375 -0.09765625 C16.77632446 -0.10551147 16.77632446 -0.10551147 18.05053711 -0.11352539 C20 0 20 0 21 1 C21.4542059 3.69293052 21.85150963 6.37491709 22.21508789 9.08056641 C22.33227676 9.92778259 22.44946564 10.77499878 22.57020569 11.64788818 C22.95866962 14.46520597 23.34085901 17.28333407 23.72265625 20.1015625 C23.99003424 22.05637788 24.25765108 24.0111606 24.52549744 25.96591187 C25.08725467 30.07309097 25.64588159 34.18068108 26.20239258 38.28857422 C26.91479517 43.54508979 27.63518278 48.80047379 28.35799503 54.05556679 C28.9129809 58.09751111 29.46352007 62.14005171 30.01275444 66.18278122 C30.27648416 68.11978638 30.54162448 70.05660004 30.80821419 71.99321365 C31.1814465 74.70923805 31.54863562 77.42601506 31.91430664 80.14306641 C32.02494446 80.93919342 32.13558228 81.73532043 32.24957275 82.55557251 C32.34909744 83.30419556 32.44862213 84.0528186 32.55116272 84.8241272 C32.63835603 85.46531809 32.72554934 86.10650898 32.81538486 86.7671299 C33.06903011 89.83490053 33 92.92176145 33 96 C28.38 96 23.76 96 19 96 C17.52960153 90.11840613 16.77981701 85.05503233 17 79 C12.38 79 7.76 79 3 79 C2.34 84.61 1.68 90.22 1 96 C-3.62 96 -8.24 96 -13 96 C-10.79596568 76.95941074 -8.28427126 57.96868895 -5.68023682 38.97973633 C-5.26738108 35.96385034 -4.85723162 32.9475986 -4.44705772 29.93134689 C-4.04844915 27.00238184 -3.64831583 24.0736267 -3.24769974 21.14493561 C-3.05829332 19.75916689 -2.86931764 18.37333922 -2.68079758 16.98744965 C-2.41942462 15.06792159 -2.15580596 13.14869973 -1.89208984 11.22949219 C-1.66916763 9.60053009 -1.66916763 9.60053009 -1.44174194 7.93865967 C-1.04060912 5.27014952 -0.55568825 2.64013951 0 0 Z M9 26 C8.42469313 30.42840931 7.85523983 34.85752181 7.29101562 39.28735352 C7.09858234 40.79178786 6.90459777 42.29602467 6.70898438 43.80004883 C6.42682651 45.97165672 6.15039965 48.14393219 5.875 50.31640625 C5.70742188 51.62037354 5.53984375 52.92434082 5.3671875 54.26782227 C5.01241792 57.8737814 4.93443317 61.3794816 5 65 C9.455 64.505 9.455 64.505 14 64 C13.51297245 51.1861372 11.98243334 38.66482108 10 26 C9.67 26 9.34 26 9 26 Z " fill="#ffffff" transform="translate(347,37)"/>
<path d="M0 0 C2.31243792 -0.02685412 4.6249627 -0.04632841 6.9375 -0.0625 C8.22527344 -0.07410156 9.51304687 -0.08570313 10.83984375 -0.09765625 C14 0 14 0 15 1 C15.33066449 2.988783 15.60120978 4.98759047 15.84790039 6.98852539 C16.08803612 8.91040428 16.08803612 8.91040428 16.33302307 10.87110901 C16.50465886 12.27994696 16.67620103 13.68879631 16.84765625 15.09765625 C17.02521413 16.53116932 17.20315153 17.96463544 17.38145447 19.39805603 C17.85049119 23.17712003 18.31435062 26.95680238 18.77716064 30.7366333 C19.25002783 34.59108244 19.72775282 38.44492899 20.20507812 42.29882812 C21.14149349 49.86530174 22.07244413 57.43243466 23 65 C25.22317738 49.88816829 27.16603768 34.75881109 28.953125 19.58984375 C29.27082694 16.90072377 29.59226922 14.21207046 29.9140625 11.5234375 C30.00885895 10.70797455 30.1036554 9.8925116 30.20132446 9.05233765 C30.57989356 5.89773582 30.99224912 3.02325264 32 0 C36.29 0 40.58 0 45 0 C44.34836871 10.67754538 43.16993725 21.18466629 41.75 31.78125 C41.52928775 33.45076146 41.30891676 35.12031806 41.08886719 36.78991699 C40.63076517 40.25937152 40.17001757 43.72845956 39.70703125 47.19726562 C39.11503554 51.63273002 38.52758818 56.06878106 37.9418335 60.50507355 C37.37934801 64.76399258 36.81482394 69.02264056 36.25 73.28125 C36.14345093 74.08558975 36.03690186 74.8899295 35.92712402 75.71864319 C35.62440116 78.00072929 35.32025252 80.28262058 35.015625 82.56445312 C34.84321289 83.85903442 34.67080078 85.15361572 34.49316406 86.48742676 C34.04690258 89.66593523 33.52766865 92.83398812 33 96 C26.07 96 19.14 96 12 96 C9.05354542 75.82618973 6.25801599 55.64084435 3.70043945 35.41381836 C3.60248581 34.63916733 3.50453217 33.8645163 3.40361023 33.06639099 C3.21207645 31.54854592 3.02123492 30.03061332 2.83113098 28.5125885 C2.38059636 24.93005535 1.91474023 21.35094766 1.41162109 17.77539062 C1.27121651 16.76747467 1.27121651 16.76747467 1.12797546 15.73919678 C0.874613 13.93332774 0.61563599 12.12824886 0.35620117 10.32324219 C-0.0153087 6.85717473 -0.06056073 3.48320978 0 0 Z " fill="#ffffff" transform="translate(399,37)"/>
<path d="M0 0 C4.94336115 3.35796248 7.49382531 8.45103751 8.75390625 14.19140625 C8.98543579 18.20622701 8.9346253 22.1754274 8.75390625 26.19140625 C6.60813988 26.21826563 4.4622798 26.23773713 2.31640625 26.25390625 C1.12144531 26.26550781 -0.07351563 26.27710938 -1.3046875 26.2890625 C-4.24609375 26.19140625 -4.24609375 26.19140625 -5.24609375 25.19140625 C-5.45377604 23.71743886 -5.61325392 22.23649365 -5.74609375 20.75390625 C-6.03756319 17.3464312 -6.03756319 17.3464312 -7.24609375 14.19140625 C-9.22609375 14.19140625 -11.20609375 14.19140625 -13.24609375 14.19140625 C-15.4496561 18.59853095 -14.92148851 24.67692981 -13.66796875 29.34375 C-11.30186578 34.6029516 -7.38500352 38.56563122 -3.4921875 42.74609375 C5.34520904 52.36732894 10.06592065 61.21071626 9.90625 74.41015625 C9.47957995 82.19961974 7.08103665 88.18887394 1.19140625 93.50390625 C-4.31496579 97.31600997 -10.79710839 96.77117956 -17.24609375 96.19140625 C-20.80859375 94.44140625 -20.80859375 94.44140625 -23.24609375 92.19140625 C-23.96796875 91.65515625 -24.68984375 91.11890625 -25.43359375 90.56640625 C-31.09007125 83.15447022 -30.52974558 74.07916373 -30.24609375 65.19140625 C-25.62609375 65.19140625 -21.00609375 65.19140625 -16.24609375 65.19140625 C-16.05078125 68.21875 -15.85546875 71.24609375 -15.66015625 74.2734375 C-15.43413642 77.37766811 -15.43413642 77.37766811 -13.24609375 80.19140625 C-9.66252134 80.44156498 -9.66252134 80.44156498 -6.24609375 80.19140625 C-5.80077847 70.14707277 -6.49152538 64.07768146 -13.43359375 56.44140625 C-14.22507812 55.58933594 -15.0165625 54.73726562 -15.83203125 53.859375 C-25.46633772 43.21175151 -31.11042209 33.25484337 -30.62890625 18.6328125 C-29.90497428 12.12481185 -28.38387361 5.66679117 -23.37109375 1.12890625 C-15.55650408 -3.71613935 -8.03995025 -4.5155885 0 0 Z " fill="#ffffff" transform="translate(889.24609375,154.80859375)"/>
<path d="M0 0 C4.31493496 2.53190399 7.02735378 6.18159705 9.046875 10.69140625 C10.19270312 15.33307108 10.1038842 19.72516762 10.015625 24.484375 C10.00660156 25.41121094 9.99757813 26.33804688 9.98828125 27.29296875 C9.96485601 29.56521659 9.92898973 31.8373303 9.890625 34.109375 C5.600625 34.109375 1.310625 34.109375 -3.109375 34.109375 C-3.15835937 33.15675781 -3.20734375 32.20414063 -3.2578125 31.22265625 C-3.33257812 29.96839844 -3.40734375 28.71414062 -3.484375 27.421875 C-3.55398438 26.18050781 -3.62359375 24.93914062 -3.6953125 23.66015625 C-4.07359594 20.41619728 -4.72917476 18.04370315 -6.109375 15.109375 C-8.089375 15.109375 -10.069375 15.109375 -12.109375 15.109375 C-14.10417958 18.4403608 -14.36208638 20.96866085 -14.36816406 24.82421875 C-14.37446838 25.97220947 -14.38077271 27.1202002 -14.38726807 28.30297852 C-14.3832196 29.53846436 -14.37917114 30.7739502 -14.375 32.046875 C-14.37787018 33.95521118 -14.37787018 33.95521118 -14.38079834 35.90209961 C-14.38215942 38.59209807 -14.37947317 41.28173315 -14.37011719 43.97167969 C-14.35872288 47.41499931 -14.36528585 50.85800712 -14.37726212 54.30131531 C-14.38623767 57.59151297 -14.37994853 60.88167326 -14.375 64.171875 C-14.37904846 65.40736084 -14.38309692 66.64284668 -14.38726807 67.91577148 C-14.38096375 69.06376221 -14.37465942 70.21175293 -14.36816406 71.39453125 C-14.36657288 72.40394775 -14.36498169 73.41336426 -14.36334229 74.45336914 C-14.10511919 77.15388257 -13.49205474 78.80053401 -12.109375 81.109375 C-8.644375 80.614375 -8.644375 80.614375 -5.109375 80.109375 C-4.00147965 76.05629167 -3.77206233 72.03826126 -3.546875 67.859375 C-3.50369141 67.11429687 -3.46050781 66.36921875 -3.41601562 65.6015625 C-3.31040775 63.771026 -3.20943299 61.94022324 -3.109375 60.109375 C-0.26723432 59.16199477 1.56670891 58.97476941 4.515625 58.984375 C5.71058594 58.98050781 5.71058594 58.98050781 6.9296875 58.9765625 C8.890625 59.109375 8.890625 59.109375 9.890625 60.109375 C10.82899517 69.71519724 11.94831733 81.96135146 6.484375 90.32421875 C2.65957193 94.60837316 -0.47233603 96.71381915 -6.234375 97.578125 C-12.47123295 97.86686842 -17.4276965 97.45605397 -22.5234375 93.671875 C-28.00068034 88.27557664 -29.22193615 82.17493033 -29.28637695 74.75537109 C-29.29921219 73.46658051 -29.31204742 72.17778992 -29.32527161 70.84994507 C-29.3334423 69.44423816 -29.3408854 68.03852685 -29.34765625 66.6328125 C-29.35173178 65.92081318 -29.3558073 65.20881386 -29.36000633 64.4752388 C-29.38083998 60.70305933 -29.39515066 56.93091589 -29.40454102 53.15869141 C-29.41557129 49.28534444 -29.44993893 45.41257735 -29.48971272 41.53943443 C-29.516014 38.54174827 -29.52424494 35.54419715 -29.52782249 32.54640579 C-29.53265742 31.12001272 -29.54418188 29.6936244 -29.56286049 28.26734543 C-29.67030121 19.51605555 -29.71969616 10.46210398 -23.69721985 3.46981812 C-16.72635139 -2.74744483 -8.44102212 -3.52263128 0 0 Z " fill="#ffffff" transform="translate(424.109375,153.890625)"/>
<path d="M0 0 C0.75728394 0.00202423 1.51456787 0.00404846 2.2947998 0.00613403 C3.06787476 0.00517731 3.84094971 0.00422058 4.63745117 0.00323486 C6.27502524 0.00255313 7.91260199 0.00440697 9.5501709 0.00857544 C12.06536901 0.01392382 14.58038854 0.00863027 17.09558105 0.00222778 C18.68282103 0.00288857 20.2700609 0.00416973 21.8572998 0.00613403 C22.99322571 0.00309769 22.99322571 0.00309769 24.15209961 0 C29.46109849 0.02399522 29.46109849 0.02399522 30.5760498 1.13894653 C30.64876722 3.49208208 30.65975848 5.84728322 30.6385498 8.20144653 C30.62952637 9.4917981 30.62050293 10.78214966 30.61120605 12.11160278 C30.59960449 13.11062622 30.58800293 14.10964966 30.5760498 15.13894653 C25.95162619 16.31590405 21.4960321 16.25261585 16.7635498 16.20144653 C14.0616748 16.18082153 11.3597998 16.16019653 8.5760498 16.13894653 C8.5760498 24.38894653 8.5760498 32.63894653 8.5760498 41.13894653 C14.1860498 41.13894653 19.7960498 41.13894653 25.5760498 41.13894653 C25.5760498 46.08894653 25.5760498 51.03894653 25.5760498 56.13894653 C19.9660498 56.13894653 14.3560498 56.13894653 8.5760498 56.13894653 C8.5760498 64.71894653 8.5760498 73.29894653 8.5760498 82.13894653 C15.44217787 82.09936184 15.44217787 82.09936184 22.30822754 82.04885864 C23.58355347 82.0451123 23.58355347 82.0451123 24.88464355 82.04129028 C25.75919189 82.03605347 26.63374023 82.03081665 27.53479004 82.02542114 C29.5760498 82.13894653 29.5760498 82.13894653 30.5760498 83.13894653 C30.64876722 85.49208208 30.65975848 87.84728322 30.6385498 90.20144653 C30.62952637 91.4917981 30.62050293 92.78214966 30.61120605 94.11160278 C30.59960449 95.11062622 30.58800293 96.10964966 30.5760498 97.13894653 C25.94980862 97.3068896 21.32339125 97.46741371 16.69665527 97.62112427 C15.12334297 97.67443217 13.55009749 97.72975242 11.97692871 97.78713989 C9.71324061 97.86936482 7.44940942 97.94430544 5.1854248 98.01785278 C4.48423523 98.04488785 3.78304565 98.07192291 3.06060791 98.09977722 C-0.31122795 98.20238646 -3.18393816 98.04542536 -6.4239502 97.13894653 C-6.44707163 84.63937554 -6.46486426 72.13980958 -6.47576237 59.6402216 C-6.48099163 53.8368104 -6.48809007 48.03341379 -6.49938965 42.23001099 C-6.51021698 36.634438 -6.5162267 31.03887908 -6.51882744 25.44329643 C-6.52068197 23.3033571 -6.5243031 21.16341857 -6.52968025 19.02348518 C-6.53688864 16.03729688 -6.53794122 13.05116746 -6.53747559 10.06497192 C-6.54107086 9.1708963 -6.54466614 8.27682068 -6.54837036 7.35565186 C-6.53592378 0.02954058 -6.53592378 0.02954058 0 0 Z " fill="#ffffff" transform="translate(338.4239501953125,152.86105346679688)"/>
<path d="M0 0 C11.88 0 23.76 0 36 0 C36 4.95 36 9.9 36 15 C28.74 15 21.48 15 14 15 C14 23.25 14 31.5 14 40 C19.61 40 25.22 40 31 40 C31 44.95 31 49.9 31 55 C25.39 55 19.78 55 14 55 C14 63.58 14 72.16 14 81 C20.86612807 80.96041531 20.86612807 80.96041531 27.73217773 80.90991211 C29.00750366 80.90616577 29.00750366 80.90616577 30.30859375 80.90234375 C31.18314209 80.89710693 32.05769043 80.89187012 32.95874023 80.88647461 C35 81 35 81 36 82 C36 86.62 36 91.24 36 96 C24.12 96 12.24 96 0 96 C0 64.32 0 32.64 0 0 Z " fill="#ffffff" transform="translate(470,37)"/>
<path d="M0 0 C0.84477905 0.00202423 1.68955811 0.00404846 2.55993652 0.00613403 C3.42179565 0.00517731 4.28365479 0.00422058 5.17163086 0.00323486 C6.99751864 0.00255304 8.82340884 0.00440749 10.64929199 0.00857544 C13.45419731 0.01392367 16.25894248 0.00863054 19.06384277 0.00222778 C20.83337438 0.00288856 22.60290588 0.00416973 24.37243652 0.00613403 C25.21721558 0.0041098 26.06199463 0.00208557 26.93237305 0 C32.85123621 0.02399622 32.85123621 0.02399622 33.96618652 1.13894653 C34.03890394 3.49208208 34.0498952 5.84728322 34.02868652 8.20144653 C34.01966309 9.4917981 34.01063965 10.78214966 34.00134277 12.11160278 C33.98974121 13.11062622 33.97813965 14.10964966 33.96618652 15.13894653 C29.41987529 16.02603165 25.73180893 16.13894653 20.96618652 16.13894653 C20.96618652 42.86894653 20.96618652 69.59894653 20.96618652 97.13894653 C16.01618652 97.13894653 11.06618652 97.13894653 5.96618652 97.13894653 C5.96618652 70.40894653 5.96618652 43.67894653 5.96618652 16.13894653 C2.33618652 16.13894653 -1.29381348 16.13894653 -5.03381348 16.13894653 C-5.69381348 15.80894653 -6.35381348 15.47894653 -7.03381348 15.13894653 C-7.06066759 12.82650861 -7.08014189 10.51398383 -7.09631348 8.20144653 C-7.10791504 6.9136731 -7.1195166 5.62589966 -7.13146973 4.29910278 C-6.96417267 -1.11462984 -4.85898241 0.01969926 0 0 Z " fill="#ffffff" transform="translate(275.0338134765625,152.86105346679688)"/>
<path d="M0 0 C1.1859375 0.00257813 2.371875 0.00515625 3.59375 0.0078125 C4.7796875 0.00523437 5.965625 0.00265625 7.1875 0 C10.09375 0.1328125 10.09375 0.1328125 11.09375 1.1328125 C11.18877416 3.62773638 11.21932566 6.09487264 11.20727539 8.59008789 C11.20742142 9.37051956 11.20756744 10.15095123 11.2077179 10.95503235 C11.20701858 13.5468723 11.19922536 16.13864128 11.19140625 18.73046875 C11.18954213 20.5226589 11.1881182 22.31484956 11.18711853 24.10704041 C11.18329284 28.83352047 11.17346212 33.55997002 11.16241455 38.28643799 C11.15220153 43.105668 11.14762115 47.92490292 11.14257812 52.74414062 C11.13183989 62.20704685 11.11424268 71.66992237 11.09375 81.1328125 C17.69375 81.4628125 24.29375 81.7928125 31.09375 82.1328125 C31.09375 87.0828125 31.09375 92.0328125 31.09375 97.1328125 C19.54375 97.1328125 7.99375 97.1328125 -3.90625 97.1328125 C-3.92879926 84.63323829 -3.94716406 72.13367747 -3.95806217 59.63408756 C-3.96329144 53.83067637 -3.97038987 48.02727975 -3.98168945 42.22387695 C-3.99251678 36.62830397 -3.9985265 31.03274505 -4.00112724 25.4371624 C-4.00298177 23.29722306 -4.00660291 21.15728454 -4.01198006 19.01735115 C-4.01918844 16.03116284 -4.02024103 13.04503343 -4.01977539 10.05883789 C-4.02337067 9.16476227 -4.02696594 8.27068665 -4.03067017 7.34951782 C-4.01849581 0.18364094 -4.01849581 0.18364094 0 0 Z " fill="#ffffff" transform="translate(669.90625,152.8671875)"/>
<path d="M0 0 C2.3428425 1.72163426 4.38166723 3.41092196 6.5 5.375 C7.74364817 6.48581701 8.98979597 7.59384111 10.23828125 8.69921875 C10.86557129 9.25657715 11.49286133 9.81393555 12.13916016 10.38818359 C14.89754541 12.77743306 17.77487866 14.99085968 20.6875 17.1875 C25.77948059 21.04187328 30.74258831 25.01528746 35.66015625 29.08984375 C37.1687424 30.32139404 38.71736864 31.50616366 40.30859375 32.62890625 C40.86675781 33.08136719 41.42492187 33.53382813 42 34 C42 34.66 42 35.32 42 36 C32.38396999 37.1527413 23.56714458 38.16954968 15.58007812 31.90722656 C12.94759377 29.59163968 10.38871458 27.21543972 7.87597656 24.77050781 C4.9203989 21.98109485 1.72187936 19.53363336 -1.5 17.0625 C-2.63956484 16.16827696 -3.77889854 15.27375927 -4.91796875 14.37890625 C-8.10841654 11.91631727 -11.3418751 9.52849673 -14.64453125 7.21875 C-16 6 -16 6 -17 3 C-15.10614563 2.49255577 -13.20981334 1.99435426 -11.3125 1.5 C-9.72888672 1.08234375 -9.72888672 1.08234375 -8.11328125 0.65625 C-2.7600233 -0.47216573 -2.7600233 -0.47216573 0 0 Z " fill="#ffffff" transform="translate(175,215)"/>
</svg>
