<svg xml:space="preserve" style="max-height: 500px" viewBox="87.04215892053972 217.3716 189.50524737631184 181.2" y="0px" x="0px" xmlns:xlink="http://www.w3.org/1999/xlink" xmlns="http://www.w3.org/2000/svg" id="katman_1" version="1.0" width="189.50524737631184" height="181.2">
<style type="text/css">
	.st0{fill:#231F20;}
	.st1{filter:url(#Adobe_OpacityMaskFilter);}
	.st2{fill:#FFFFFF;}
	.st3{fill:url(#SVGID_1_);}
	.st4{fill:url(#SVGID_00000176008037968579500960000017929228888075724677_);}
	.st5{fill:url(#SVGID_00000011730755772013091640000018168610862041403300_);}
	
		.st6{mask:url(#SVGID_00000080927719334466558720000003985512822422240655_);fill:url(#SVGID_00000062876045614308681980000013212801694090189234_);}
</style>
<g id="Layer_2">
	<defs>
		<filter height="134.9" width="152.4" y="231.9" x="107" filterUnits="userSpaceOnUse" id="Adobe_OpacityMaskFilter">
			<feColorMatrix values="1 0 0 0 0  0 1 0 0 0  0 0 1 0 0  0 0 0 1 0" type="matrix"/>
		</filter>
	</defs>
	
		<mask id="SVGID_00000080927719334466558720000003985512822422240655_" height="134.9" width="152.4" y="231.9" x="107" maskUnits="userSpaceOnUse">
		<g class="st1">
			<path d="M90,222.7h184.5v154H90V222.7z"/>
			<path d="M127.2,285.8c-0.5,0-1-0.1-1.4-0.4l-13.6-7.9c-1.3-0.7-1.9-2.2-1.4-3.6c0.5-1.5,2.2-2.3,3.7-1.7&#10;&#9;&#9;&#9;&#9;c0.2,0.1,0.3,0.1,0.5,0.2l13.6,7.9c1.4,0.8,1.9,2.5,1.3,3.9C129.3,285.2,128.3,285.8,127.2,285.8z M150.8,262.3&#10;&#9;&#9;&#9;&#9;c-1,0-2-0.6-2.5-1.4l-7.9-13.6c-0.7-1.2-0.5-2.8,0.6-3.8c1.2-1,3-0.9,4.1,0.3c0,0,0,0,0,0c0.1,0.1,0.2,0.3,0.3,0.4l7.9,13.6&#10;&#9;&#9;&#9;&#9;c0.8,1.3,0.5,3-0.8,4C151.9,262.1,151.4,262.3,150.8,262.3z M180,250.6v-15.5c0-1.6,1.2-2.9,2.8-3.1c1.6-0.1,2.9,1.2,3,2.8v16&#10;&#9;&#9;&#9;&#9;c0,1.6-1.3,2.9-2.9,2.9h-0.1C181.2,253.5,180,252.2,180,250.6z M215.1,262.3c-0.6,0-1.2-0.2-1.6-0.5c-1.2-0.9-1.6-2.6-0.8-4&#10;&#9;&#9;&#9;&#9;l7.9-13.6c0.8-1.4,2.6-1.9,3.9-1.1c0.1,0.1,0.3,0.2,0.4,0.3c1.1,1,1.3,2.6,0.6,3.8l-7.9,13.6&#10;&#9;&#9;&#9;&#9;C217.1,261.7,216.1,262.3,215.1,262.3z M238.6,285.8c-1.1,0-2.1-0.6-2.6-1.5c-0.7-1.4-0.1-3.2,1.3-3.9l13.5-7.8&#10;&#9;&#9;&#9;&#9;c1.2-0.7,2.8-0.5,3.7,0.5c1,1.2,0.9,3-0.3,4.1c0,0,0,0,0,0c-0.1,0.1-0.3,0.2-0.4,0.3l-13.8,7.9&#10;&#9;&#9;&#9;&#9;C239.6,285.7,239.1,285.8,238.6,285.8z" class="st2"/>
			
				<linearGradient gradientTransform="matrix(-1.450306e-02 -1.450306e-02 1.450306e-02 -1.450306e-02 67.5306 -113.6915)" y2="-10365.2529" x2="-16274.8984" y1="-10879.7207" x1="-19192.7051" gradientUnits="userSpaceOnUse" id="SVGID_1_">
				<stop style="stop-color:#FFFFFF;stop-opacity:0" offset="0.195"/>
				<stop style="stop-color:#FFFFFF;stop-opacity:3.000000e-02" offset="0.287"/>
				<stop style="stop-color:#FFFFFF;stop-opacity:0.2" offset="0.501"/>
				<stop style="stop-color:#FFFFFF;stop-opacity:0.74" offset="0.793"/>
				<stop style="stop-color:#FFFFFF" offset="1"/>
			</linearGradient>
			<path d="M146.3,351.7c-20.2-20.2-20.2-53,0-73.2c20.2-20.2,53-20.2,73.2,0c1.5,1.5,2.8,3,4.1,4.6&#10;&#9;&#9;&#9;&#9;c0.9,1.1,1.7,2.3,2.5,3.5l-4.8,3.2c-0.7-1.1-1.4-2.1-2.2-3.1c-1.1-1.4-2.4-2.8-3.7-4.1c-18-18-47.1-18-65.1,0&#10;&#9;&#9;&#9;&#9;c-18,18-18,47.1,0,65.1C150.4,347.6,146.3,351.7,146.3,351.7z" class="st3"/>
			<path d="M219.8,366.9h-79.7c-18.5-0.1-33.3-15.2-33.2-33.7v0l5.8,0c-0.1,15.3,12.2,27.8,27.5,27.9h79.6&#10;&#9;&#9;&#9;&#9;c18.7,0,33.8-15.1,33.8-33.8c0-8.3-3.1-16.3-8.6-22.5l4.3-3.8c14.6,16.3,13.2,41.3-3.1,55.9C239,363.3,229.6,366.9,219.8,366.9z" class="st2"/>
			
				<linearGradient gradientTransform="matrix(2.051043e-02 0 0 2.051043e-02 -53.4995 -41.2908)" y2="16982.7031" x2="9366.9883" y1="17970.0625" x1="7656.8525" gradientUnits="userSpaceOnUse" id="SVGID_00000043415938796937368740000001250501632105575082_">
				<stop style="stop-color:#FFFFFF" offset="8.000000e-02"/>
				<stop style="stop-color:#FFFFFF;stop-opacity:7.000000e-02" offset="0.753"/>
				<stop style="stop-color:#FFFFFF;stop-opacity:0" offset="0.875"/>
			</linearGradient>
			<path d="M112.7,333.2l-5.8,0&#10;&#9;&#9;&#9;&#9;c0.1-16.2,11.9-30,27.9-32.7l1,5.7C122.5,308.4,112.8,319.8,112.7,333.2z" style="fill:url(#SVGID_00000043415938796937368740000001250501632105575082_);"/>
			
				<linearGradient gradientTransform="matrix(2.051043e-02 0 0 2.051043e-02 -53.4995 -41.2908)" y2="15973.6426" x2="14166.6895" y1="18156.1699" x1="11565.6514" gradientUnits="userSpaceOnUse" id="SVGID_00000004528429678159218410000005172733148142063283_">
				<stop style="stop-color:#FFFFFF;stop-opacity:0" offset="0.138"/>
				<stop style="stop-color:#FFFFFF;stop-opacity:7.000000e-02" offset="0.32"/>
				<stop style="stop-color:#FFFFFF;stop-opacity:0.764" offset="0.847"/>
				<stop style="stop-color:#FFFFFF" offset="0.947"/>
			</linearGradient>
			<path d="M186.1,327.1l-5.8,0&#10;&#9;&#9;&#9;&#9;c0.2-21.8,18-39.4,39.8-39.3c11.2,0.1,21.8,4.9,29.2,13.2l-4.3,3.8c-12.4-13.9-33.8-15.1-47.7-2.7&#10;&#9;&#9;&#9;&#9;C190.2,308.5,186.1,317.5,186.1,327.1z" style="fill:url(#SVGID_00000004528429678159218410000005172733148142063283_);"/>
		</g>
	</mask>
	
		<linearGradient gradientTransform="matrix(3.588248e-02 0 0 3.588248e-02 -19.6345 -2.3195)" y2="10509.0029" x2="4597.2676" y1="6799.4102" x1="6738.999" gradientUnits="userSpaceOnUse" id="SVGID_00000067946601360995204440000011549237995636409740_">
		<stop style="stop-color:#50FFD2" offset="0"/>
		<stop style="stop-color:#0064FF" offset="1"/>
	</linearGradient>
	
		<path d="M127.3,285.7c-0.5,0-1-0.1-1.4-0.4l-13.6-7.9c-1.3-0.7-1.9-2.2-1.4-3.6c0.5-1.5,2.2-2.3,3.7-1.7c0.2,0.1,0.3,0.1,0.5,0.2l13.6,7.9&#10;&#9;&#9;c1.4,0.8,1.9,2.5,1.3,3.9C129.3,285.1,128.4,285.7,127.3,285.7z M150.8,262.2c-1,0-2-0.6-2.5-1.4l-7.9-13.6&#10;&#9;&#9;c-0.7-1.2-0.5-2.8,0.6-3.8c1.2-1,3-0.9,4.1,0.3c0,0,0,0,0,0c0.1,0.1,0.2,0.3,0.3,0.4l7.9,13.6c0.8,1.3,0.5,3-0.8,4&#10;&#9;&#9;C152,262,151.4,262.2,150.8,262.2z M180.1,250.5V235c0-1.6,1.2-2.9,2.8-3.1c1.6-0.1,2.9,1.2,3,2.8c0,0,0,0.1,0,0.1v15.9&#10;&#9;&#9;c0,1.6-1.3,2.9-2.9,2.9h-0.1C181.3,253.4,180.1,252.1,180.1,250.5z M215.2,262.2c-0.6,0-1.2-0.2-1.6-0.5c-1.2-0.9-1.6-2.6-0.8-4&#10;&#9;&#9;l7.9-13.6c0.8-1.4,2.6-1.9,3.9-1.1c0.1,0.1,0.3,0.2,0.4,0.3c1.1,1,1.3,2.6,0.6,3.8l-7.9,13.6C217.1,261.6,216.2,262.2,215.2,262.2z&#10;&#9;&#9; M238.7,285.7c-1.1,0-2.1-0.6-2.6-1.5c-0.7-1.4-0.1-3.2,1.3-3.9l13.5-7.8c1.2-0.7,2.8-0.5,3.7,0.5c1,1.2,0.9,3-0.3,4.1c0,0,0,0,0,0&#10;&#9;&#9;c-0.1,0.1-0.3,0.2-0.4,0.3l-13.8,8C239.7,285.6,239.2,285.7,238.7,285.7z M146.4,351.6c-20.2-20.2-20.2-53,0-73.2&#10;&#9;&#9;c20.2-20.2,53-20.2,73.2,0c1.5,1.5,2.8,3,4.1,4.6c0.9,1.1,1.7,2.3,2.5,3.5l-4.8,3.2c-0.7-1.1-1.4-2.1-2.2-3.1&#10;&#9;&#9;c-1.1-1.4-2.4-2.8-3.7-4.1c-18-18-47.1-18-65.1,0c-18,18-18,47.1,0,65.1C150.5,347.5,146.4,351.6,146.4,351.6z M219.9,366.8h-79.7&#10;&#9;&#9;c-18.5-0.1-33.3-15.2-33.2-33.7v0l5.8,0c-0.1,15.3,12.2,27.8,27.5,27.9h79.6c18.7,0,33.8-15.1,33.8-33.8c0-8.3-3.1-16.3-8.6-22.5&#10;&#9;&#9;l4.3-3.8c14.6,16.3,13.2,41.3-3.1,55.9C239,363.2,229.6,366.8,219.9,366.8z M112.8,333.1l-5.8,0c0.1-16.2,11.9-30,27.9-32.7l1,5.7&#10;&#9;&#9;C122.6,308.3,112.9,319.7,112.8,333.1z M186.1,327l-5.8,0c0.2-21.8,18-39.4,39.8-39.3c11.2,0.1,21.8,4.9,29.2,13.2l-4.3,3.8&#10;&#9;&#9;c-12.4-13.9-33.8-15.1-47.7-2.7C190.3,308.4,186.2,317.4,186.1,327z" style="mask:url(#SVGID_00000080927719334466558720000003985512822422240655_);fill:url(#SVGID_00000067946601360995204440000011549237995636409740_);"/>
</g>
</svg>