<?xml version="1.0" encoding="UTF-8"?>
<svg version="1.1" xmlns="http://www.w3.org/2000/svg" width="1500" height="2000">
<path d="M0 0 C2.27640838 -0.00417527 4.55281468 -0.00965384 6.82921714 -0.01631981 C13.07104603 -0.03076777 19.3127428 -0.02653163 25.5545789 -0.019153 C31.59924582 -0.01490824 37.64388003 -0.02473474 43.68853722 -0.03406062 C56.81195807 -0.05370885 69.93533938 -0.05607845 83.05877143 -0.05086542 C94.54529684 -0.04630499 106.03180662 -0.04691148 117.51833153 -0.05270576 C119.06021728 -0.05346264 120.60210303 -0.05421862 122.14398878 -0.05497371 C124.46759344 -0.05611893 126.79119809 -0.05726881 129.11480274 -0.05843295 C150.71287523 -0.06913533 172.31094252 -0.07386594 193.90901661 -0.06596279 C195.12980605 -0.06551703 195.12980605 -0.06551703 196.37525791 -0.06506227 C202.98399712 -0.06261343 209.59273626 -0.06000179 216.2014754 -0.05737813 C241.97554347 -0.04727722 267.74954637 -0.05562921 293.52360535 -0.07887268 C322.49551155 -0.10495788 351.46737852 -0.11778978 380.4392969 -0.11068493 C383.52984058 -0.10996889 386.62038427 -0.1092945 389.71092796 -0.10864449 C390.4718716 -0.10847468 391.23281524 -0.10830487 392.01681778 -0.10812991 C403.49229376 -0.10582909 414.96773326 -0.1137936 426.44320107 -0.12693596 C439.49773111 -0.14186029 452.5521758 -0.14267291 465.60670403 -0.12486505 C472.26560808 -0.11615491 478.92438467 -0.11422066 485.5832901 -0.1295166 C491.68330122 -0.1433551 497.78300974 -0.13861076 503.88300332 -0.11927737 C506.08546535 -0.11551454 508.28795157 -0.1184474 510.49039207 -0.12888902 C525.58304084 -0.19533365 538.51432668 1.04386806 552.12785339 8.20018005 C552.79808533 8.54419861 553.46831726 8.88821716 554.15885925 9.24266052 C559.53168704 12.07580721 564.23699429 15.39115408 568.81535339 19.38768005 C569.71254089 20.08957458 569.71254089 20.08957458 570.62785339 20.8056488 C585.54270138 32.6909183 594.86047811 51.78115368 597.81535339 70.38768005 C598.09393039 74.73357788 598.08480882 79.06732313 598.06835306 83.42099297 C598.07140615 84.72296153 598.07445925 86.02493009 598.07760486 87.36635224 C598.08579683 90.9821153 598.08156686 94.59777306 598.07531313 98.21353604 C598.07070192 102.16116182 598.07772517 106.10877006 598.08324677 110.05639231 C598.09135369 117.0023959 598.0920063 123.94836956 598.08783488 130.89437617 C598.0816243 141.29290421 598.08690776 151.69140474 598.0944323 162.08993077 C598.10691172 179.81138828 598.10984276 197.53283602 598.10759735 215.25429726 C598.10534995 233.21764629 598.10741137 251.18098703 598.11474228 269.14433479 C598.11520159 270.27818572 598.11566089 271.41203665 598.11613412 272.58024669 C598.11801735 277.19812442 598.11992873 281.81600213 598.1218765 286.43387983 C598.14217613 334.63177992 598.14828887 382.82967538 598.14946072 431.02757926 C598.14959021 436.2171505 598.14972609 441.40672174 598.14986753 446.59629297 C598.14990154 447.88406165 598.14993555 449.17183034 598.14997059 450.49862231 C598.15078715 479.02257528 598.15516585 507.54652735 598.16017922 536.07047985 C598.16223591 547.81190357 598.16421595 559.55332731 598.16621172 571.29475105 C598.1664329 572.59203826 598.16665408 573.88932547 598.16688196 575.22592442 C598.17208073 605.78210562 598.17654637 636.3382869 598.18024635 666.89446831 C598.18032709 667.56025384 598.18040783 668.22603937 598.18049102 668.91200022 C598.1856175 711.34022448 598.187416 753.76844818 598.18689036 796.19667272 C598.18686485 798.28309043 598.18684092 800.36950813 598.18681753 802.45592584 C598.18665285 817.11391438 598.18644743 831.77190293 598.18623177 846.42989147 C598.18617024 850.63266699 598.18611011 854.83544251 598.18605015 859.03821803 C598.18599996 862.54388185 598.18594838 866.04954567 598.18589392 869.55520949 C598.18487108 935.76794377 598.18770648 1001.98067318 598.20658875 1068.19340515 C598.20678746 1068.89047992 598.20698618 1069.58755469 598.20719092 1070.30575294 C598.21341362 1092.08566626 598.2201466 1113.86557942 598.22697449 1135.64549255 C598.23397734 1157.99339862 598.24091827 1180.3413047 598.24750328 1202.68921089 C598.24780786 1203.72137219 598.24780786 1203.72137219 598.24811859 1204.77438522 C598.26081717 1247.86963434 598.26866069 1290.96488206 598.27121925 1334.06013298 C598.27125931 1334.72573864 598.27129936 1335.39134431 598.27134063 1336.07711984 C598.27313056 1365.96479319 598.27370346 1395.85246648 598.27312063 1425.74013988 C598.27292765 1436.19369009 598.27282357 1446.64724029 598.27276317 1457.1007905 C598.27274734 1459.70142897 598.27272693 1462.30206743 598.27270192 1464.9027059 C598.27234909 1506.3632404 598.28375273 1547.82376125 598.30100955 1589.28429184 C598.31829945 1631.03647473 598.32270051 1672.7886387 598.30948691 1714.54082366 C598.30766227 1720.30808872 598.30597572 1726.07535382 598.30437088 1731.84261894 C598.30389062 1733.53845765 598.30389062 1733.53845765 598.30340065 1735.26855573 C598.29869147 1753.18234894 598.3074171 1771.09610946 598.32171325 1789.00989652 C598.3354846 1806.61738204 598.33501871 1824.22481921 598.31932898 1841.83230366 C598.31055411 1852.15937557 598.31273808 1862.48630521 598.33106255 1872.81336539 C598.34213903 1879.67100567 598.33872096 1886.52853969 598.32349699 1893.38617177 C598.31527144 1897.27422128 598.31320089 1901.16199067 598.32899836 1905.05002312 C598.44122391 1934.60805113 598.44122391 1934.60805113 593.81535339 1946.38768005 C593.48474125 1947.23077007 593.1541291 1948.07386008 592.8134984 1948.94249827 C591.98760052 1950.9250529 591.07061906 1952.8031341 590.06535339 1954.70018005 C589.72463806 1955.36259705 589.38392273 1956.02501404 589.03288269 1956.70750427 C585.95339775 1962.50227194 582.16074995 1967.4785095 577.81535339 1972.38768005 C577.03804871 1973.36478943 576.26074402 1974.3418988 575.45988464 1975.34861755 C572.87268114 1978.45719293 569.9136578 1980.96073287 566.69035339 1983.38768005 C566.12848328 1983.81484314 565.56661316 1984.24200623 564.98771667 1984.68211365 C551.9503339 1994.38768005 551.9503339 1994.38768005 545.81535339 1994.38768005 C545.48535339 1995.04768005 545.15535339 1995.70768005 544.81535339 1996.38768005 C532.05835601 2001.21976838 518.96756152 2000.95073661 505.53560638 2000.8882513 C503.18976136 2000.89212555 500.84391871 2000.89775208 498.49808156 2000.9049609 C492.73396652 2000.91813814 486.97007784 2000.91283906 481.20596773 2000.89966261 C474.24709049 2000.88483293 467.28828945 2000.89355011 460.32940966 2000.90286363 C447.32655843 2000.91959285 434.32377221 2000.91742972 421.32091904 2000.90487671 C408.14980281 2000.8922314 394.97872682 2000.8883169 381.80760574 2000.89499092 C380.97477132 2000.89540713 380.14193691 2000.89582334 379.28386508 2000.89625216 C375.89170876 2000.89797693 372.49955248 2000.89976479 369.10739624 2000.90163235 C337.53510903 2000.91900917 305.96285151 2000.91685212 274.39056396 2000.90229607 C243.96977406 2000.88828898 213.54899757 2000.88125227 183.12820435 2000.88400459 C181.21760953 2000.88416748 179.30701471 2000.88432951 177.39641989 2000.8844907 C169.71860084 2000.88514901 162.0407818 2000.88585276 154.36296276 2000.88661604 C132.9011269 2000.88872761 111.4392911 2000.88948017 89.97745514 2000.88919926 C89.00016654 2000.88918688 88.02287794 2000.8891745 87.01597453 2000.88916174 C55.87828023 2000.8886724 24.74059008 2000.88224818 -6.39710236 2000.87164211 C-7.40695323 2000.87129868 -8.4168041 2000.87095524 -9.45725651 2000.87060139 C-25.85662845 2000.86500276 -42.25600026 2000.85906853 -58.65537207 2000.85311233 C-123.71754578 2000.82950368 -188.77969605 2000.82332032 -253.84187317 2000.83372498 C-257.95450868 2000.83437818 -262.0671442 2000.8350295 -266.17977971 2000.83568048 C-267.70502963 2000.83592203 -267.70502963 2000.83592203 -269.26109269 2000.83616846 C-280.52197489 2000.83794791 -291.7828571 2000.83967005 -303.04373932 2000.8413229 C-304.55846609 2000.84154695 -304.55846609 2000.84154695 -306.10379341 2000.84177553 C-359.63562571 2000.84963076 -413.16745592 2000.84402833 -466.69928747 2000.83320961 C-474.36771972 2000.83166035 -482.03615198 2000.830147 -489.70458423 2000.82863478 C-492.56461977 2000.82806655 -495.42465531 2000.82748506 -498.28469085 2000.82690305 C-519.21154789 2000.82269982 -540.13840259 2000.82050643 -561.06525993 2000.82358813 C-562.00872002 2000.82372674 -562.95218011 2000.82386535 -563.92422991 2000.82400816 C-568.67457534 2000.82471858 -573.42492076 2000.82546478 -578.17526618 2000.82622553 C-612.48244801 2000.83171047 -646.78960513 2000.82760943 -681.09678155 2000.80623697 C-684.47389016 2000.80417463 -687.85099879 2000.80215789 -691.22810745 2000.80017662 C-692.47132816 2000.7994402 -692.47132816 2000.7994402 -693.73966444 2000.7986889 C-706.88053186 2000.79117046 -720.02137741 2000.79369491 -733.16224448 2000.80035046 C-746.07307396 2000.80667422 -758.9838629 2000.80231636 -771.89468462 2000.78647216 C-778.80519993 2000.77828098 -785.71563588 2000.77481075 -792.62615079 2000.78504472 C-798.90581787 2000.79388137 -805.1853166 2000.78905299 -811.46496819 2000.77306529 C-813.72915634 2000.76973568 -815.99335875 2000.77148745 -818.25753756 2000.77879377 C-821.32210961 2000.78795648 -824.38609559 2000.77875023 -827.45063734 2000.76487821 C-828.32921614 2000.7719323 -829.20779494 2000.7789864 -830.11299734 2000.78625425 C-835.80355282 2000.73441028 -839.95583621 1999.64981465 -845.18464661 1997.38768005 C-846.19269348 1996.99967224 -847.20074036 1996.61166443 -848.23933411 1996.2118988 C-854.97477301 1993.49719974 -861.08287987 1990.31726149 -867.18464661 1986.38768005 C-868.27777161 1985.70705505 -869.37089661 1985.02643005 -870.49714661 1984.32518005 C-874.85229995 1981.18541834 -877.79972737 1978.15751853 -880.18464661 1973.38768005 C-881.17464661 1973.05768005 -882.16464661 1972.72768005 -883.18464661 1972.38768005 C-883.85131327 1970.72101339 -884.51797994 1969.05434672 -885.18464661 1967.38768005 C-886.17464661 1967.05768005 -887.16464661 1966.72768005 -888.18464661 1966.38768005 C-898.76454456 1951.12536228 -902.4994413 1934.91402323 -902.44191551 1916.73692799 C-902.44461218 1915.25973164 -902.44818187 1913.78253669 -902.45253998 1912.30534431 C-902.46197115 1908.25034827 -902.45900606 1904.19544238 -902.45398444 1900.14044199 C-902.45071234 1895.72717428 -902.45900489 1891.31392563 -902.46580279 1886.90066403 C-902.47610398 1879.16706772 -902.47894637 1871.43349644 -902.47689056 1863.69989395 C-902.47384091 1852.19952606 -902.48216377 1840.69918588 -902.49263982 1829.19882338 C-902.51198553 1807.46396845 -902.51760825 1785.72912294 -902.51875393 1763.99426041 C-902.51967287 1747.21020383 -902.52378878 1730.42615095 -902.53015518 1713.64209557 C-902.53195026 1708.81154464 -902.53372989 1703.98099371 -902.53550494 1699.15044278 C-902.53594703 1697.94956817 -902.53638913 1696.74869357 -902.53684462 1695.51142883 C-902.54915367 1661.73129212 -902.55704568 1627.9511567 -902.55615807 1594.17101765 C-902.55612691 1592.89733054 -902.55609575 1591.62364343 -902.55606365 1590.31135975 C-902.55589743 1583.85572197 -902.55569935 1577.4000842 -902.55549423 1570.94444642 C-902.55545434 1569.66232379 -902.55541445 1568.38020115 -902.55537335 1567.05922632 C-902.55529248 1564.46646185 -902.55520888 1561.87369738 -902.55512257 1559.28093292 C-902.55389699 1518.93930362 -902.56891134 1478.59770794 -902.5962677 1438.25608826 C-902.6269867 1392.93695899 -902.64420032 1347.61785181 -902.64234126 1302.29871148 C-902.64219199 1297.46658878 -902.64209458 1292.63446607 -902.64203262 1287.80234337 C-902.64200931 1286.612544 -902.64198601 1285.42274464 -902.64196199 1284.19689075 C-902.64190044 1265.04768729 -902.65467362 1245.89851302 -902.67189715 1226.74931824 C-902.6888482 1207.50510194 -902.69083158 1188.26092834 -902.67767851 1169.01670871 C-902.67028595 1157.58423651 -902.67395654 1146.15189401 -902.69356319 1134.71943554 C-902.70555766 1127.08007863 -902.702978 1119.44081572 -902.68862219 1111.80146314 C-902.68085479 1107.45061887 -902.67932011 1103.10002569 -902.6955369 1098.74919907 C-902.71018728 1094.78381636 -902.70611453 1090.81889181 -902.68768916 1086.85352887 C-902.68427264 1085.43497438 -902.68741711 1084.0163832 -902.69829158 1082.59786628 C-902.79476061 1069.09991819 -900.06898921 1057.02574707 -893.93464661 1044.95018005 C-893.38937317 1043.83546326 -893.38937317 1043.83546326 -892.83308411 1042.69822693 C-891.96222534 1040.92213339 -891.07533051 1039.15391488 -890.18464661 1037.38768005 C-889.52464661 1037.38768005 -888.86464661 1037.38768005 -888.18464661 1037.38768005 C-887.99902161 1036.72768005 -887.81339661 1036.06768005 -887.62214661 1035.38768005 C-885.57655886 1031.11862737 -882.61280017 1027.64604299 -879.18464661 1024.38768005 C-878.52464661 1024.38768005 -877.86464661 1024.38768005 -877.18464661 1024.38768005 C-877.18464661 1023.72768005 -877.18464661 1023.06768005 -877.18464661 1022.38768005 C-858.92217159 1005.13546961 -836.23116814 999.24855708 -811.77046204 999.22946167 C-810.41062161 999.22488992 -809.05078257 999.219889 -807.69094515 999.2144981 C-803.96930676 999.2009774 -800.24767746 999.19351632 -796.526021 999.18707144 C-792.50702672 999.1790407 -788.48805118 999.16535219 -784.46907043 999.15235901 C-777.51090077 999.1306341 -770.55272918 999.1124751 -763.59454346 999.09675407 C-753.53423714 999.07401907 -743.47395161 999.04588132 -733.41366297 999.0164348 C-717.09058858 998.96880333 -700.76750568 998.92552714 -684.44441223 998.88499451 C-668.59023883 998.84561694 -652.73607298 998.8041853 -636.88191223 998.75999451 C-635.90427947 998.75727023 -634.92664671 998.75454596 -633.91938871 998.75173914 C-629.01477832 998.73805929 -624.11016804 998.72433909 -619.20555782 998.71059883 C-578.53193651 998.59670391 -537.85829888 998.48987915 -497.18464661 998.38768005 C-497.18502633 997.69667438 -497.18540605 997.0056687 -497.18579727 996.29372346 C-497.20841708 954.88680437 -497.22545274 913.47988603 -497.23571194 872.07296195 C-497.23696191 867.04652032 -497.23825631 862.0200787 -497.23957825 856.99363708 C-497.23997171 855.49328975 -497.23997171 855.49328975 -497.24037313 853.96263237 C-497.24466659 837.99020991 -497.25251726 822.01779123 -497.2617994 806.04537098 C-497.27131553 789.52643465 -497.27673908 773.00750023 -497.2787351 756.48856127 C-497.27995721 747.26486081 -497.28280925 738.04116817 -497.29037666 728.81747055 C-497.30716617 707.35833945 -497.28760527 685.8996811 -497.21088441 664.44066977 C-497.19136988 658.85833284 -497.1780055 653.27601087 -497.16782353 647.69364954 C-497.14938254 637.79165803 -497.11205276 627.89003291 -497.04413683 617.98824865 C-497.01202447 613.26159727 -496.98737844 608.53524285 -496.98379529 603.80847621 C-496.95146129 574.35972179 -495.08278873 550.68075159 -475.81355286 527.01268005 C-474.18464661 525.38768005 -474.18464661 525.38768005 -472.18464661 525.38768005 C-472.18464661 524.72768005 -472.18464661 524.06768005 -472.18464661 523.38768005 C-470.2367123 521.59768636 -468.27546025 520.00164146 -466.18464661 518.38768005 C-465.43054504 517.7740863 -464.67644348 517.16049255 -463.89949036 516.52830505 C-446.16482466 502.72575981 -425.69492648 499.2159843 -403.68817139 499.26742554 C-402.33159396 499.26698885 -400.97501663 499.26611216 -399.61843973 499.26483637 C-395.91044833 499.26261052 -392.20248606 499.26658643 -388.49449837 499.27161443 C-384.48848419 499.27594628 -380.48247156 499.27447057 -376.47645569 499.27371216 C-369.54230296 499.27318866 -362.60815967 499.27631732 -355.67400932 499.28195 C-345.64848038 499.29008851 -335.62295598 499.29268263 -325.5974241 499.29393799 C-309.33035311 499.29612481 -293.06328714 499.30277488 -276.79621887 499.3122406 C-260.997391 499.32142428 -245.1985645 499.32850044 -229.3997345 499.33274841 C-228.42535145 499.33301114 -227.45096841 499.33327386 -226.44705861 499.33354454 C-221.55870303 499.33484961 -216.67034744 499.33611331 -211.78199184 499.33735645 C-171.24953993 499.34771755 -130.71709356 499.36532582 -90.18464661 499.38768005 C-90.18540605 498.48047114 -90.18616549 497.57326223 -90.18694794 496.63856214 C-90.23168403 442.89463278 -90.26600958 389.15070539 -90.28677727 335.40676114 C-90.28927874 328.95663447 -90.29186738 322.50650784 -90.29450989 316.05638123 C-90.29529682 314.13018896 -90.29529682 314.13018896 -90.29609965 312.16508371 C-90.30480716 291.36052468 -90.32057904 270.55597667 -90.3389522 249.75142419 C-90.35764162 228.41110689 -90.3687613 207.07079538 -90.3728236 185.73047024 C-90.37557064 172.55765182 -90.38425345 159.38486458 -90.40047954 146.21205575 C-90.41103459 137.18442684 -90.41425059 128.1568141 -90.41164936 119.12917947 C-90.41036577 113.91728009 -90.41236204 108.70543526 -90.42305756 103.49354553 C-90.4327753 98.72337674 -90.43329109 93.9532993 -90.4264444 89.18312634 C-90.42559792 87.45622807 -90.42814746 85.72932415 -90.43441297 84.00243705 C-90.44243106 81.65634093 -90.43811757 79.31057522 -90.43074226 76.96448421 C-90.4315017 75.66090432 -90.43226115 74.35732443 -90.4330436 73.01424211 C-89.95253603 65.99889747 -87.24360499 59.45719059 -84.87214661 52.88768005 C-84.44772278 51.66371521 -84.44772278 51.66371521 -84.01472473 50.4150238 C-82.06270085 45.0220709 -79.63275659 40.96205712 -76.18464661 36.38768005 C-75.85464661 35.39768005 -75.52464661 34.40768005 -75.18464661 33.38768005 C-73.89805498 32.00918902 -72.55551575 30.6823898 -71.18464661 29.38768005 C-70.42152161 28.62455505 -69.65839661 27.86143005 -68.87214661 27.07518005 C-67.98527161 26.18830505 -67.09839661 25.30143005 -66.18464661 24.38768005 C-65.50015442 23.61617615 -65.50015442 23.61617615 -64.80183411 22.8290863 C-56.45257287 13.74559355 -44.80465521 7.26573408 -33.18464661 3.38768005 C-32.54460908 3.14112276 -31.90457155 2.89456546 -31.24513894 2.64053673 C-21.12974013 -0.74854827 -10.53086882 -0.03136751 0 0 Z " fill="#EEC231" transform="translate(902.1846466064453,-0.3876800537109375)"/>
<path d="M0 0 C2.27640838 -0.00417527 4.55281468 -0.00965384 6.82921714 -0.01631981 C13.07104603 -0.03076777 19.3127428 -0.02653163 25.5545789 -0.019153 C31.59924582 -0.01490824 37.64388003 -0.02473474 43.68853722 -0.03406062 C56.81195807 -0.05370885 69.93533938 -0.05607845 83.05877143 -0.05086542 C94.54529684 -0.04630499 106.03180662 -0.04691148 117.51833153 -0.05270576 C119.06021728 -0.05346264 120.60210303 -0.05421862 122.14398878 -0.05497371 C124.46759344 -0.05611893 126.79119809 -0.05726881 129.11480274 -0.05843295 C150.71287523 -0.06913533 172.31094252 -0.07386594 193.90901661 -0.06596279 C195.12980605 -0.06551703 195.12980605 -0.06551703 196.37525791 -0.06506227 C202.98399712 -0.06261343 209.59273626 -0.06000179 216.2014754 -0.05737813 C241.97554347 -0.04727722 267.74954637 -0.05562921 293.52360535 -0.07887268 C322.49551155 -0.10495788 351.46737852 -0.11778978 380.4392969 -0.11068493 C383.52984058 -0.10996889 386.62038427 -0.1092945 389.71092796 -0.10864449 C390.4718716 -0.10847468 391.23281524 -0.10830487 392.01681778 -0.10812991 C403.49229376 -0.10582909 414.96773326 -0.1137936 426.44320107 -0.12693596 C439.49773111 -0.14186029 452.5521758 -0.14267291 465.60670403 -0.12486505 C472.26560808 -0.11615491 478.92438467 -0.11422066 485.5832901 -0.1295166 C491.68330122 -0.1433551 497.78300974 -0.13861076 503.88300332 -0.11927737 C506.08546535 -0.11551454 508.28795157 -0.1184474 510.49039207 -0.12888902 C525.58304084 -0.19533365 538.51432668 1.04386806 552.12785339 8.20018005 C552.79808533 8.54419861 553.46831726 8.88821716 554.15885925 9.24266052 C559.53168704 12.07580721 564.23699429 15.39115408 568.81535339 19.38768005 C569.71254089 20.08957458 569.71254089 20.08957458 570.62785339 20.8056488 C585.54270138 32.6909183 594.86047811 51.78115368 597.81535339 70.38768005 C598.09393039 74.73357788 598.08480882 79.06732313 598.06835306 83.42099297 C598.07140615 84.72296153 598.07445925 86.02493009 598.07760486 87.36635224 C598.08579683 90.9821153 598.08156686 94.59777306 598.07531313 98.21353604 C598.07070192 102.16116182 598.07772517 106.10877006 598.08324677 110.05639231 C598.09135369 117.0023959 598.0920063 123.94836956 598.08783488 130.89437617 C598.0816243 141.29290421 598.08690776 151.69140474 598.0944323 162.08993077 C598.10691172 179.81138828 598.10984276 197.53283602 598.10759735 215.25429726 C598.10534995 233.21764629 598.10741137 251.18098703 598.11474228 269.14433479 C598.11543124 270.84511118 598.11543124 270.84511118 598.11613412 272.58024669 C598.11801735 277.19812442 598.11992873 281.81600213 598.1218765 286.43387983 C598.14217613 334.63177992 598.14828887 382.82967538 598.14946072 431.02757926 C598.14959021 436.2171505 598.14972609 441.40672174 598.14986753 446.59629297 C598.14990154 447.88406165 598.14993555 449.17183034 598.14997059 450.49862231 C598.15078715 479.02257528 598.15516585 507.54652735 598.16017922 536.07047985 C598.16223591 547.81190357 598.16421595 559.55332731 598.16621172 571.29475105 C598.1664329 572.59203826 598.16665408 573.88932547 598.16688196 575.22592442 C598.17208073 605.78210562 598.17654637 636.3382869 598.18024635 666.89446831 C598.18032709 667.56025384 598.18040783 668.22603937 598.18049102 668.91200022 C598.1856175 711.34022448 598.187416 753.76844818 598.18689036 796.19667272 C598.18686485 798.28309043 598.18684092 800.36950813 598.18681753 802.45592584 C598.18665285 817.11391438 598.18644743 831.77190293 598.18623177 846.42989147 C598.18617024 850.63266699 598.18611011 854.83544251 598.18605015 859.03821803 C598.18599996 862.54388185 598.18594838 866.04954567 598.18589392 869.55520949 C598.18487108 935.76794377 598.18770648 1001.98067318 598.20658875 1068.19340515 C598.20678746 1068.89047992 598.20698618 1069.58755469 598.20719092 1070.30575294 C598.21341362 1092.08566626 598.2201466 1113.86557942 598.22697449 1135.64549255 C598.23397734 1157.99339862 598.24091827 1180.3413047 598.24750328 1202.68921089 C598.24780786 1203.72137219 598.24780786 1203.72137219 598.24811859 1204.77438522 C598.26081717 1247.86963434 598.26866069 1290.96488206 598.27121925 1334.06013298 C598.27125931 1334.72573864 598.27129936 1335.39134431 598.27134063 1336.07711984 C598.27313056 1365.96479319 598.27370346 1395.85246648 598.27312063 1425.74013988 C598.27292765 1436.19369009 598.27282357 1446.64724029 598.27276317 1457.1007905 C598.27274734 1459.70142897 598.27272693 1462.30206743 598.27270192 1464.9027059 C598.27234909 1506.3632404 598.28375273 1547.82376125 598.30100955 1589.28429184 C598.31829945 1631.03647473 598.32270051 1672.7886387 598.30948691 1714.54082366 C598.30766227 1720.30808872 598.30597572 1726.07535382 598.30437088 1731.84261894 C598.30405071 1732.97317808 598.30373053 1734.10373722 598.30340065 1735.26855573 C598.29869147 1753.18234894 598.3074171 1771.09610946 598.32171325 1789.00989652 C598.3354846 1806.61738204 598.33501871 1824.22481921 598.31932898 1841.83230366 C598.31055411 1852.15937557 598.31273808 1862.48630521 598.33106255 1872.81336539 C598.34213903 1879.67100567 598.33872096 1886.52853969 598.32349699 1893.38617177 C598.31527144 1897.27422128 598.31320089 1901.16199067 598.32899836 1905.05002312 C598.44122391 1934.60805113 598.44122391 1934.60805113 593.81535339 1946.38768005 C593.48474125 1947.23077007 593.1541291 1948.07386008 592.8134984 1948.94249827 C591.98760052 1950.9250529 591.07061906 1952.8031341 590.06535339 1954.70018005 C589.72463806 1955.36259705 589.38392273 1956.02501404 589.03288269 1956.70750427 C585.95339775 1962.50227194 582.16074995 1967.4785095 577.81535339 1972.38768005 C577.03804871 1973.36478943 576.26074402 1974.3418988 575.45988464 1975.34861755 C572.87268114 1978.45719293 569.9136578 1980.96073287 566.69035339 1983.38768005 C566.12848328 1983.81484314 565.56661316 1984.24200623 564.98771667 1984.68211365 C551.9503339 1994.38768005 551.9503339 1994.38768005 545.81535339 1994.38768005 C545.48535339 1995.04768005 545.15535339 1995.70768005 544.81535339 1996.38768005 C530.44403101 2002.59826555 513.61627204 2000.9327914 498.29822993 2000.85194254 C494.14987136 2000.83451335 490.00153435 2000.84052506 485.85314941 2000.84355164 C478.68278997 2000.84563932 471.5125772 2000.83319171 464.34225464 2000.81060028 C453.97546099 2000.77795921 443.60873758 2000.76766094 433.24189812 2000.76264831 C416.4185241 2000.75391456 399.59522808 2000.72735132 382.77189636 2000.68943787 C366.43889249 2000.65266792 350.10590988 2000.62438061 333.77287292 2000.60740662 C332.764485 2000.60635572 331.75609707 2000.60530483 330.71715194 2000.60422209 C325.65788207 2000.59900158 320.59861205 2000.59394683 315.53934193 2000.58897448 C273.63129152 2000.54757228 231.72332694 2000.47717643 189.81535339 2000.38768005 C189.81597732 1999.14568516 189.81660124 1997.90369026 189.81724407 1996.62405916 C189.83857619 1954.09905882 189.85901844 1911.57405808 189.87882996 1869.04905701 C189.87942874 1867.76402869 189.87942874 1867.76402869 189.88003962 1866.4530402 C189.92278623 1774.6636115 189.95967932 1682.87418266 189.98472595 1591.08474731 C189.98528375 1589.04600069 189.98584156 1587.00725407 189.98639937 1584.96850745 C189.99808996 1542.17526348 190.00895684 1499.38201934 190.01887211 1456.58877492 C190.02385371 1435.09250932 190.0289936 1413.59624376 190.03428316 1392.09997824 C190.03508015 1388.85733516 190.03587263 1385.61469208 190.03666491 1382.372049 C190.04890574 1332.43625709 190.06454266 1282.50046908 190.0900116 1232.56468201 C190.09055919 1231.49090918 190.09110679 1230.41713636 190.09167098 1229.31082496 C190.10052053 1211.99828098 190.10965494 1194.68573715 190.11882716 1177.37319333 C190.14523963 1127.51147512 190.16954791 1077.6497599 190.17991257 1027.78803539 C190.18023378 1026.25017994 190.18023378 1026.25017994 190.18056148 1024.68125671 C190.18522439 1002.17551515 190.18880387 979.66977356 190.19135733 957.16403167 C190.19240382 948.10865444 190.1936063 939.05327722 190.19486237 929.99790001 C190.19499607 929.00682477 190.19512978 928.01574953 190.19526754 926.99464171 C190.19965418 895.05529035 190.21674136 863.11596126 190.24048223 831.17661889 C190.26433678 799.0061849 190.27575161 766.83577252 190.26984935 734.66532947 C190.26903701 730.22066913 190.26836749 725.77600879 190.26778412 721.33134842 C190.2676646 720.46006106 190.26754507 719.5887737 190.26742193 718.6910837 C190.26589875 704.8893884 190.27784224 691.08773881 190.29539284 677.28605597 C190.31237037 663.71771205 190.31511495 650.14942742 190.30268065 636.58107789 C190.2958193 628.62444734 190.29992005 620.66800474 190.3202214 612.71139609 C190.33406815 606.80596924 190.32706335 600.90068712 190.3119133 594.99525935 C190.30905313 592.61979119 190.31292035 590.24430312 190.32429437 587.86886047 C190.45546029 570.73847729 190.45546029 570.73847729 185.81535339 554.38768005 C185.47367127 553.57813221 185.13198915 552.76858436 184.77995302 551.93450477 C183.90241349 549.93751087 182.94909163 548.0088452 181.94035339 546.07518005 C181.59230652 545.39640808 181.24425964 544.71763611 180.88566589 544.01829529 C178.29702043 539.0747676 175.46438788 534.62316651 171.81535339 530.38768005 C170.99550964 529.33773865 170.99550964 529.33773865 170.15910339 528.2665863 C157.64390434 512.96728576 139.08607232 504.34502264 119.81535339 501.38768005 C112.76562868 500.71958454 105.68206549 500.82175869 98.608078 500.84178162 C96.53662345 500.83302577 94.46517564 500.82253307 92.39373779 500.81045532 C86.82461935 500.78282098 81.25572405 500.77918561 75.68654704 500.78017521 C69.84625921 500.77702654 64.00606904 500.75136801 58.16583252 500.72819519 C47.13078448 500.68778047 36.09579533 500.66732876 25.06068474 500.6542213 C12.48732118 500.63830184 -0.08594289 500.59986555 -12.65924847 500.55962801 C-38.50101437 500.47742803 -64.34277734 500.42321183 -90.18464661 500.38768005 C-90.23040363 445.59998413 -90.26565544 390.81229013 -90.28677727 336.02457887 C-90.28927874 329.55943092 -90.29186738 323.09428302 -90.29450989 316.62913513 C-90.29529682 314.69845694 -90.29529682 314.69845694 -90.29609965 312.72877515 C-90.30480717 291.87571718 -90.32057907 271.02267022 -90.3389522 250.16961878 C-90.35764157 228.77958094 -90.36876129 207.38954887 -90.3728236 185.9995032 C-90.37557065 172.79597534 -90.38425352 159.59247859 -90.40047954 146.38896031 C-90.41103453 137.34030663 -90.4142506 128.29166907 -90.41164936 119.24300968 C-90.41036576 114.01895875 -90.41236215 108.79496225 -90.42305756 103.57092094 C-90.43277516 98.78964968 -90.43329118 94.00846956 -90.4264444 89.22719414 C-90.42559791 87.49625822 -90.42814757 85.76531666 -90.43441297 84.03439187 C-90.4424308 81.68285019 -90.43811773 79.33163816 -90.43074226 76.98010159 C-90.4315017 75.67348393 -90.43226115 74.36686627 -90.4330436 73.02065414 C-89.95318722 66.00242987 -87.24452967 59.45975218 -84.87214661 52.88768005 C-84.58919739 52.07170349 -84.30624817 51.25572693 -84.01472473 50.4150238 C-82.06270085 45.0220709 -79.63275659 40.96205712 -76.18464661 36.38768005 C-75.85464661 35.39768005 -75.52464661 34.40768005 -75.18464661 33.38768005 C-73.89805498 32.00918902 -72.55551575 30.6823898 -71.18464661 29.38768005 C-70.42152161 28.62455505 -69.65839661 27.86143005 -68.87214661 27.07518005 C-67.98527161 26.18830505 -67.09839661 25.30143005 -66.18464661 24.38768005 C-65.72831848 23.87334412 -65.27199036 23.35900818 -64.80183411 22.8290863 C-56.45257287 13.74559355 -44.80465521 7.26573408 -33.18464661 3.38768005 C-32.54460908 3.14112276 -31.90457155 2.89456546 -31.24513894 2.64053673 C-21.12974013 -0.74854827 -10.53086882 -0.03136751 0 0 Z " fill="#D4930E" transform="translate(902.1846466064453,-0.3876800537109375)"/>
<path d="M0 0 C2.24712265 -0.00202605 4.49424443 -0.0053674 6.74136341 -0.00990558 C12.89745607 -0.01853357 19.05339726 -0.00850668 25.20947671 0.00463676 C31.17255153 0.01442967 37.13561163 0.010078 43.09868947 0.00612571 C55.29300527 -0.00145076 67.48727569 0.00502928 79.6815834 0.01973724 C91.75707479 0.03428451 103.83254628 0.0430247 115.90804672 0.04392242 C117.03589151 0.04401407 117.03589151 0.04401407 118.18652104 0.04410756 C121.23885219 0.04433708 124.29118334 0.04452426 127.34351449 0.0446557 C155.14559793 0.04586634 182.94765361 0.0615506 210.74972534 0.08624268 C236.98475357 0.10953804 263.21976497 0.12370997 289.45480347 0.1272583 C290.26316094 0.12736982 291.0715184 0.12748133 291.90437155 0.12759623 C295.16341629 0.12804509 298.42246103 0.12848707 301.68150577 0.12892865 C303.30570064 0.12914903 304.92989551 0.12937033 306.55409038 0.12959253 C308.17434691 0.12981389 309.79460343 0.13003266 311.41485996 0.13024884 C337.22490025 0.13376513 363.03493738 0.14522568 388.8449745 0.15805517 C396.39788502 0.16177203 403.95079534 0.16503738 411.50370646 0.16730404 C427.38494476 0.17211524 443.266173 0.1792142 459.14740433 0.19545171 C465.71464175 0.20209424 472.2818723 0.20712416 478.84911346 0.20791245 C484.86057501 0.20869998 490.87201397 0.21411252 496.88346849 0.22323194 C499.05823839 0.22573779 501.23301098 0.22657424 503.40778209 0.22557315 C506.36490941 0.22447483 509.32196629 0.22951292 512.27908516 0.23606491 C513.54368058 0.2334107 513.54368058 0.2334107 514.83382338 0.23070288 C537.19244511 0.31508079 556.31409865 8.47404491 572.47872925 23.86260986 C580.72006295 32.16862375 586.21852399 41.75121424 590.97189331 52.36749268 C591.48880737 53.4116333 592.00572144 54.45577393 592.53829956 55.53155518 C596.7119105 65.51494527 596.25746829 76.73258325 596.21798897 87.35260391 C596.21947077 88.9509335 596.22183061 90.54926246 596.22498196 92.14758962 C596.23109258 96.52949672 596.22479273 100.91131032 596.2164257 105.29321042 C596.20953533 110.06409873 596.21430307 114.83497791 596.21758068 119.6058681 C596.22172263 127.96382805 596.21845003 136.32175948 596.21030426 144.67971611 C596.19822551 157.10765435 596.19763346 169.53557465 596.19938824 181.96351769 C596.20201515 202.8701058 596.19533658 223.77668126 596.18335342 244.68326569 C596.17151912 265.38321241 596.16382148 286.08315386 596.1616478 306.78310394 C596.16151032 308.07019523 596.16137284 309.35728651 596.16123119 310.68338056 C596.16055453 317.21987477 596.15995176 323.75636899 596.15937744 330.29286322 C596.15817148 343.5839586 596.15631461 356.87505388 596.1541729 370.16614914 C596.15406626 370.83109593 596.15395963 371.49604271 596.15384976 372.1811394 C596.14860855 404.5155573 596.13599418 436.84997176 596.12277222 469.18438721 C596.11818884 480.40311684 596.11363808 491.62184648 596.10922241 502.84057617 C596.10881156 503.88427686 596.10881156 503.88427686 596.10839242 504.94906242 C596.09570082 537.30391623 596.08825197 569.65877062 596.08215282 602.01362627 C596.08175669 604.11450493 596.08135831 606.2153836 596.08095946 608.31626226 C596.07831987 622.23906534 596.07577057 636.16186843 596.07328174 650.08467154 C596.0682109 678.44699141 596.06256682 706.80931116 596.05657959 735.17163086 C596.05630501 736.47568259 596.05603043 737.77973432 596.05574753 739.12330277 C596.0373464 826.20470227 596.00565602 913.28609795 595.97189331 1000.36749268 C536.78525398 1000.41883937 477.59861235 1000.46660232 418.41195679 1000.49452209 C417.09832835 1000.49514335 417.09832835 1000.49514335 415.75816195 1000.49577716 C396.72645619 1000.50475554 377.69475018 1000.51306613 358.66304383 1000.52068866 C349.33012121 1000.52443073 339.99719865 1000.52832038 330.66427612 1000.5322876 C329.73553004 1000.53267987 328.80678396 1000.53307215 327.84989405 1000.53347632 C297.73767779 1000.54626409 267.6254784 1000.56880081 237.51327237 1000.59638434 C206.5733023 1000.62467469 175.63334157 1000.64314728 144.69335879 1000.64923765 C140.32494567 1000.65010213 135.95653258 1000.65107904 131.58811951 1000.6521244 C130.29844918 1000.65242781 130.29844918 1000.65242781 128.98272492 1000.65273734 C115.13349701 1000.65628475 101.28429794 1000.67020502 87.4350818 1000.68798878 C73.51747998 1000.70563954 59.59990681 1000.71239936 45.68229419 1000.70799681 C37.41000793 1000.70571225 29.13782639 1000.71182344 20.86555901 1000.72988531 C14.69342553 1000.74244289 8.52139343 1000.73938559 2.3492561 1000.73018936 C-0.15154549 1000.72891776 -2.65235582 1000.73275836 -5.15314013 1000.74214222 C-8.54550836 1000.75413467 -11.93735967 1000.74772052 -15.32971954 1000.73663616 C-16.3066063 1000.7445172 -17.28349305 1000.75239824 -18.28998244 1000.7605181 C-24.24286662 1000.71639407 -28.57264534 999.76885069 -34.02810669 997.36749268 C-35.03615356 996.97948486 -36.04420044 996.59147705 -37.08279419 996.19171143 C-43.81823309 993.47701237 -49.92633995 990.29707412 -56.02810669 986.36749268 C-57.12123169 985.68686768 -58.21435669 985.00624268 -59.34060669 984.30499268 C-63.69576003 981.16523096 -66.64318745 978.13733115 -69.02810669 973.36749268 C-70.01810669 973.03749268 -71.00810669 972.70749268 -72.02810669 972.36749268 C-72.69477336 970.70082601 -73.36144002 969.03415934 -74.02810669 967.36749268 C-75.01810669 967.03749268 -76.00810669 966.70749268 -77.02810669 966.36749268 C-87.60800464 951.1051749 -91.34290138 934.89383585 -91.2853756 916.71674061 C-91.28807226 915.23954427 -91.29164195 913.76234931 -91.29600006 912.28515694 C-91.30543123 908.23016089 -91.30246614 904.17525501 -91.29744452 900.12025461 C-91.29417243 895.70698691 -91.30246498 891.29373825 -91.30926287 886.88047665 C-91.31956406 879.14688034 -91.32240645 871.41330907 -91.32035065 863.67970657 C-91.31730099 852.17933868 -91.32562385 840.67899851 -91.3360999 829.178636 C-91.35544561 807.44378107 -91.36106833 785.70893556 -91.36221401 763.97407303 C-91.36313295 747.19001645 -91.36724887 730.40596357 -91.37361526 713.62190819 C-91.37541034 708.79135726 -91.37718997 703.96080633 -91.37896502 699.1302554 C-91.37940712 697.9293808 -91.37984921 696.72850619 -91.38030471 695.49124145 C-91.39261375 661.71110474 -91.40050577 627.93096932 -91.39961815 594.15083027 C-91.39958699 592.87714316 -91.39955583 591.60345605 -91.39952373 590.29117237 C-91.39935752 583.83553459 -91.39915943 577.37989682 -91.39895432 570.92425904 C-91.39891443 569.64213641 -91.39887454 568.36001378 -91.39883344 567.03903894 C-91.39875256 564.44627447 -91.39866897 561.85351001 -91.39858265 559.26074554 C-91.39735707 518.91911624 -91.41237143 478.57752056 -91.43972778 438.23590088 C-91.47044678 392.91677161 -91.4876604 347.59766444 -91.48580134 302.2785241 C-91.48565208 297.4464014 -91.48555466 292.6142787 -91.48549271 287.78215599 C-91.4854694 286.59235663 -91.48544609 285.40255726 -91.48542207 284.17670337 C-91.48536052 265.02749992 -91.4981337 245.87832564 -91.51535724 226.72913087 C-91.53230829 207.48491457 -91.53429167 188.24074097 -91.52113859 168.99652133 C-91.51374603 157.56404913 -91.51741662 146.13170663 -91.53702327 134.69924816 C-91.54901775 127.05989126 -91.54643808 119.42062834 -91.53208228 111.78127576 C-91.52431487 107.43043149 -91.5227802 103.07983831 -91.53899698 98.72901169 C-91.55364737 94.76362899 -91.54957461 90.79870443 -91.53114925 86.83334149 C-91.52773272 85.41478701 -91.5308772 83.99619582 -91.54175166 82.5776789 C-91.63822069 69.07973081 -88.91244929 57.00555969 -82.77810669 44.92999268 C-82.41459106 44.18684814 -82.05107544 43.44370361 -81.67654419 42.67803955 C-80.80568542 40.90194601 -79.91879059 39.1337275 -79.02810669 37.36749268 C-78.36810669 37.36749268 -77.70810669 37.36749268 -77.02810669 37.36749268 C-76.84248169 36.70749268 -76.65685669 36.04749268 -76.46560669 35.36749268 C-74.42001895 31.09843999 -71.45626026 27.62585562 -68.02810669 24.36749268 C-67.36810669 24.36749268 -66.70810669 24.36749268 -66.02810669 24.36749268 C-66.02810669 23.70749268 -66.02810669 23.04749268 -66.02810669 22.36749268 C-56.91851755 13.76183825 -45.85245909 7.40278754 -34.02810669 3.36749268 C-33.30638657 3.11730228 -32.58466645 2.86711188 -31.84107602 2.60933995 C-21.37720818 -0.5175943 -10.80970148 -0.04332036 0 0 Z " fill="#F7DD69" transform="translate(91.02810668945313,999.6325073242188)"/>
<path d="M0 0 C1.36003025 -0.00087447 2.72006017 -0.00262986 4.08008832 -0.00517833 C7.77907563 -0.00960858 11.47794511 -0.00170847 15.17691743 0.00837779 C19.18013437 0.01707305 23.18334548 0.01408786 27.18656921 0.01257324 C34.10975003 0.01152821 41.03289294 0.01776474 47.95606422 0.02904892 C57.96561076 0.04535294 67.97513911 0.05051693 77.98469748 0.0530249 C94.22737278 0.05739434 110.47002791 0.07068299 126.71269226 0.08963013 C142.48417561 0.10800842 158.25565348 0.12215537 174.02714539 0.13064575 C175.00047753 0.1311712 175.97380968 0.13169665 176.97663675 0.13223802 C181.85990976 0.13484823 186.74318282 0.13737561 191.6264559 0.13986182 C232.0918202 0.1605709 272.5571623 0.19577589 313.02250671 0.24050903 C309.65357282 2.48646496 308.57686194 2.48633498 304.64018726 2.47098732 C303.51604414 2.47148602 302.39190101 2.47198472 301.23369294 2.47249854 C299.99343707 2.4627819 298.75318119 2.45306527 297.4753418 2.4430542 C295.50526642 2.43949215 295.50526642 2.43949215 293.49539155 2.43585813 C289.84219197 2.42898229 286.18914934 2.40953631 282.53601015 2.38809729 C278.59944335 2.36717632 274.66284743 2.35782803 270.72624207 2.34709167 C263.9032666 2.32689115 257.08035263 2.29931855 250.25742531 2.26677322 C240.39255904 2.21972847 230.52767699 2.18374837 220.66275575 2.15048997 C204.65853287 2.09623221 188.65435851 2.03299564 172.65019226 1.96414185 C157.10137983 1.89726626 141.55255986 1.83460116 126.00370789 1.77761841 C125.04567048 1.77410597 124.08763307 1.77059352 123.10056422 1.76697464 C118.2944895 1.74938022 113.48841448 1.73186879 108.68233931 1.71439862 C68.79567397 1.56930248 28.90907693 1.40964697 -10.97749329 1.24050903 C-10.97749329 1.90050903 -10.97749329 2.56050903 -10.97749329 3.24050903 C-11.71354797 3.22890747 -12.44960266 3.21730591 -13.20796204 3.20535278 C-14.18378235 3.19632935 -15.15960266 3.18730591 -16.16499329 3.17800903 C-17.12792297 3.16640747 -18.09085266 3.15480591 -19.08296204 3.14285278 C-21.83325842 3.23564281 -24.3022892 3.61939218 -26.97749329 4.24050903 C-26.97749329 3.58050903 -26.97749329 2.92050903 -26.97749329 2.24050903 C-17.91503162 0.58761126 -9.20197276 -0.04342563 0 0 Z " fill="#ECCD58" transform="translate(498.9774932861328,498.7594909667969)"/>
<path d="M0 0 C0.99 0.33 1.98 0.66 3 1 C2.38253906 1.46148438 1.76507813 1.92296875 1.12890625 2.3984375 C-8.65008217 9.92989585 -16.10334412 18.13165388 -22 29 C-22.66 28.34 -23.32 27.68 -24 27 C-16.32952716 14.57692871 -16.32952716 14.57692871 -12 10 C-11.34 10 -10.68 10 -10 10 C-10 9.34 -10 8.68 -10 8 C-8.03130146 6.2550172 -6.06559821 4.61898238 -4 3 C-3.278125 2.38125 -2.55625 1.7625 -1.8125 1.125 C-1.214375 0.75375 -0.61625 0.3825 0 0 Z " fill="#ECCA4C" transform="translate(440,515)"/>
<path d="M0 0 C0.66 0.33 1.32 0.66 2 1 C-3.61 6.61 -9.22 12.22 -15 18 C-15.66 17.67 -16.32 17.34 -17 17 C-15.71520959 15.49410612 -14.42195918 13.99542625 -13.125 12.5 C-12.40570312 11.6646875 -11.68640625 10.829375 -10.9453125 9.96875 C-10.30335937 9.3190625 -9.66140625 8.669375 -9 8 C-8.34 8 -7.68 8 -7 8 C-7 7.34 -7 6.68 -7 6 C-5.46875 4.4921875 -5.46875 4.4921875 -3.5 2.875 C-2.8503125 2.33617187 -2.200625 1.79734375 -1.53125 1.2421875 C-0.77328125 0.62730469 -0.77328125 0.62730469 0 0 Z " fill="#ECCC5A" transform="translate(32,1016)"/>
</svg>
